/* XPM */
static char *result[] = {
/* columns rows colors chars-per-pixel */
"50 50 164 2 ",
"   c #0D5B02",
".  c #135D04",
"X  c #185D04",
"o  c #175608",
"O  c #1A550B",
"+  c #165C0B",
"@  c #1A5D0D",
"#  c #166404",
"$  c #1B6505",
"%  c #176803",
"&  c #1C6B05",
"*  c #1C630A",
"=  c #1E6B0A",
"-  c #1D7306",
";  c #1E7309",
":  c #1F7A0B",
">  c #216A07",
",  c #21660A",
"<  c #226D0C",
"1  c #286E0E",
"2  c #366800",
"3  c #3A6C02",
"4  c #227306",
"5  c #24740C",
"6  c #2A740D",
"7  c #257A0C",
"8  c #2A7B0E",
"9  c #3F7402",
"0  c #397E06",
"q  c #357C0E",
"w  c #266D11",
"e  c #2B6D13",
"r  c #27681D",
"t  c #346F14",
"y  c #257412",
"u  c #2B7513",
"i  c #277D12",
"p  c #2C7C13",
"a  c #267519",
"s  c #2A741C",
"d  c #2E7E1A",
"f  c #327612",
"g  c #327E15",
"h  c #3B7E14",
"j  c #317B1A",
"k  c #3E7E19",
"l  c #2C7B22",
"z  c #307223",
"x  c #427603",
"c  c #457C04",
"v  c #487D07",
"b  c #457709",
"n  c #467908",
"m  c #497D0C",
"M  c #4A7711",
"N  c #4C7B12",
"B  c #507F15",
"V  c #278306",
"C  c #2A820D",
"Z  c #32850F",
"A  c #3C840C",
"S  c #2C8313",
"D  c #2D8A14",
"F  c #2F8419",
"G  c #2F8819",
"H  c #338314",
"J  c #3B8414",
"K  c #338B15",
"L  c #3C8B14",
"P  c #33841A",
"I  c #3C861A",
"U  c #348B1A",
"Y  c #3B8C1B",
"T  c #379117",
"R  c #34921C",
"E  c #39931C",
"W  c #3C981E",
"Q  c #398520",
"!  c #378A20",
"~  c #3B8C23",
"^  c #3B8C2C",
"/  c #379121",
"(  c #3F9925",
")  c #478002",
"_  c #498205",
"`  c #4E8B06",
"'  c #45820A",
"]  c #4D840B",
"[  c #448A0F",
"{  c #4E8A0A",
"}  c #528F05",
"|  c #50870D",
" . c #528C0C",
".. c #549007",
"X. c #56920E",
"o. c #458614",
"O. c #4F8412",
"+. c #468D11",
"@. c #4C8A14",
"#. c #42841B",
"$. c #448C1C",
"%. c #4B8D1C",
"&. c #518515",
"*. c #558A15",
"=. c #588E17",
"-. c #558619",
";. c #568B19",
":. c #598E1A",
">. c #44931E",
",. c #4C921D",
"<. c #569111",
"1. c #5A9314",
"2. c #5C9911",
"3. c #53921E",
"4. c #5C931C",
"5. c #5D981A",
"6. c #629B1D",
"7. c #65A11E",
"8. c #428B21",
"9. c #4F8E20",
"0. c #5D8F21",
"q. c #449323",
"w. c #4D9422",
"e. c #4F9E26",
"r. c #43952D",
"t. c #4A9328",
"y. c #479B2B",
"u. c #539623",
"i. c #5E9221",
"p. c #549B24",
"a. c #5B9A25",
"s. c #5D9C28",
"d. c #619523",
"f. c #649B24",
"g. c #689F27",
"h. c #649E29",
"j. c #689E29",
"k. c #5DA126",
"l. c #65A124",
"z. c #69A126",
"x. c #6CAA24",
"c. c #64A32B",
"v. c #6DA42B",
"b. c #6BA82C",
"n. c #70A72F",
"m. c #71A92E",
"M. c #75B32C",
"N. c #6EA930",
"B. c #74AD33",
"V. c #76B032",
"C. c #7AB435",
"Z. c #7DBB33",
"A. c #7CB738",
"S. c #7EBA39",
"D. c #7FC033",
"F. c #80BE36",
"G. c #81BE3B",
"H. c #82C336",
"J. c #85C33C",
"K. c #87CA39",
"L. c #88CA3A",
"P. c #8CD13C",
"I. c #87C440",
"U. c #88C541",
/* pixels */
"5 D ; y U 5 o G T . S 1 w 8 8 C S 6 6 H 3.L - V C # P 5 6 . i u , 6 1 U < < p 5 p u + ~ 5 U + R 7 = ",
"4 7 % S F % i ! K 1 7 5 T Y 6 C 6 u p J B.a.C 7 D q.u j i $ 4 8 # u.p.+ S S = R S y 4 = F p p 7 Y O ",
"8 S 4 D - G = 7 D i 4 i D D 5 T ~ u = 8.B.B.H % i c.I , J p S = H N.h.7 y S = C & * F = w F 5 P p t.",
"6 & 8 C . < u Y H 5 T 4 ; C 5 S f f u %.B.B.u.< Y B.w.h O.#.X / #.B.c.p = p G G # y p p 6 u 5 u % y ",
"7 S 7 5 P y p 8 4 5 W + 7 >.u p h.s.9.p.B.B.N.i.v.B.s.&.O.@.9.h c.B.c.> . < q.7 y G = U p y p 5 $ y ",
"i S 4 F 5 P H 7 C < F d F i.h.&.B.B.B.N.B.B.n.d.N.B.f.O.O.&.i.i.c.B.s.p = %.a.Y S 5 u F G y 5 P < F ",
"7 C 7 - 7 5 8 C Z q I 8.H v.B.j.v.B.B.B.B.B.n.d.v.B.i.O.O.-.i.d.v.B.5.' I b.b.o.+.y / 6 - < u p = @ ",
"U 7 S % 4 C < >.s.a.k ;.a.B.B.j.d.B.B.B.B.B.v.v.v.B.:.O.O.;.d.n.B.b.{ ` 5.B.l. .{ H S 4 G y Y j u p ",
"5 7 % P   # 5 8 l.x.z.f.j.m.B.n.n.A.C.B.B.z.M.Z.j.4.*.O.O.:.v.B.m.1.` ` 6.m.X.` } 6 < 5 u P ( = a j ",
"% & C 7 ; : 5 E p.n.x.n.v.m.B.F.U.U.I.G.m.x.Z.D.5._ &.&.&.4.n.B.h. .` ` 6.x. .} } Y $ 5 G P u = U u ",
"- :   C D C u 9.d.v.n.z.n.m.n.F.U.I.U.G.j.v.H.Z.1._ *.:.;.&.d.d.i.X.{ } f.f.` ` { h 5 y = u e Q p / ",
"% % : C # w.k.i.d.g.x.n.n.n.n.F.G.I.U.J.j.g.H.H. ._ :.d.&.O.-.d.m.Z.7.*.f.1.) `  .=.;., w ( u w u p ",
"C = - S H h.B.v.d.d.v.v.x.v.m.n.G.U.U.G.1.X.x.H.1.] m.l.O.&.*.j.J.U.G.f.*.) ) _ ` ` { ) _ ` H P y @ ",
"; G # > ;.h.B.B.n.d.f.n.m.v.n.g.j.I.I.G.1. .X.7.5.1.J.m.O.O.&.B.U.U.U.v.] ) _ ` ` ` ` ` ` ` q * C U ",
"o $ 4 f i.h.B.B.B.v.B.G.F.F.&.N &.d.A.G.1. . . .6.C.U.V.@.&.d.Z.J.U.J.b._ ) ` ` ` _ ` ` ` ' ( 4 y 7 ",
"; y u 8.i.d.j.1.6.C.G.G.F.G.6.b b b &.d.4. . .| 6.I.U.V.*.z.B.S.U.U.U.b.&.` ` ` ` ` ` ` *.u.8.< 4 G ",
"p e e 8.g.j.g.X...6.B.S.J.J.Z.&.b b b m 0. .|  .6.J.U.B.j.B.B.F.J.U.G.6.*.|  .=.4.6.6.z.m.B.B.#.S u ",
"u h #.c.B.B.B.6.` ..d.v.B.C.V.f.n n n n :.6.] _ 6.J.I.B.n.B.j.n.U.J.6.v c *.j.n.v.n.B.B.B.V.c.S % - ",
"> p p.B.B.B.B.m.2...1.4.4.=. .| ] n b x m g.` _ 6.G.I.B.m.4.-.d.x.6.) ) ) :.m.B.v.B.n.z.z.f.a.< 7 % ",
"8 6 O.:.4.n.B.B.m.1.&.O.O.] O.| <.<.| m &.x.=._  .G.G.n.6.x B | ) ) ) ) _ f.B.n.d.1. .} `  .| L 7 5 ",
"Z ' &.O.O.=.f.h.6.:.O.O.&.{ 4.M.F.F.F.F.m.B.z._ ] v.C.d.m x c c ) ) ) ) ] 6.v.-. .}  .` ` ..`  .0 4 ",
"' &.O.O.O.O.&.O.O.&.&.&.&.f.H.L.L.H.L.F.B.B.C.M.1.*.4.;.x x c c ) ) ) _ m c n x _  .` ` ` ` ` ` [ C ",
"q O.O.&.O.O.O.&.O.O.&.3.4.H.K.K.L.J.G.m.6.m.K.L.4.O.&.;.c ] ` c c ) ) 4.f.:.| m  .` } ` ` ` ` +.4 7 ",
"U J O.O.O.O.O.O.O.O.&.6.g.A.H.L.H.F.C.z.] 6.P.M.O.O.&.0.x.H.M.2._ | 4.B.B.B.B.n.d.1. .` ` <.5.;.U U ",
"% h i.i.d.4.&.&.&.O.O.-.4.:.4.d.4.j.B.v. .x.H.5.O.O.;.d.5.H.P.L.m.4._ 1.v.B.B.B.v.d.4.f.z.m.v.j.h 5 ",
"U a.N.B.B.B.f.O.O.] n b m &.O.O.] v.B.v.*.6.6.&.O.&.z.h.9 { V.Z.C.v. .c ` =.6.1.| | 4.5.f.v.B.B.%.1 ",
"J N.B.B.B.B.=.n n n m &.O.m O._ n h.B.v.4.] &.&.O.7.Z.v.n 9 *.j.h.1.} ) c c ) ) ) | _ ) )  .m.B.B.8.",
"i s.B.B.B.v.O.b n b 4.B.n.d.&.v c 6.B.f.] x x n O.Z.L.V.4.9 v 4.} _ c c ) ) ) ) *.*.) ) ) *.g.v.z.t.",
"u 6 d.6.f.6.*.n n b -.B.B.B.j.] c ;.n.| x 9 x O.v m.P.C.v.&.n ` ` ` &.v c c c n ;.i.:.&. .;.=.&.>.p ",
"5 f ] ] ` ] _ ` m m v v.C.B.B.&.x ] :.m x b v ;.n 5.L.A.B.=.) ` ` } | b n c n n b &.:.=.=.;.;.;.&.6 ",
"g ' ` ] _ ` ] ] =.d.4.f.j.n.B.6.n | &.m ] O.&.;.m m C.Z.v.c _ ` `  .B &.=.n n n n m *.;.=.;.*.=.;.@.",
"6 _ _ | |  .| =.j.j.:.-.| &.f.B.f.&.-.:.d.d.:.i.M m f.V.v.] ) x 3 m f.n.6.n n n n m &.=.;.*.=.*.@.$.",
"S Z q =.6.g.6.j.g.&.O.O.O.O.4.z.j.&.j.B.B.B.B.n.*.B :.d.d.-.9 2 2 d.B.B.&.b n m &.&.&.*.*.4.3.H * U ",
"$ U %.l.z.z.z.g.&.&.O.O.O.&.i.m c m d.B.C.B.B.B.n.-.*.-.&.M 2 2 O.n.B.n.&.m O.&.&.&.&.&.f.B.B.p.T u ",
"i f a.l.z.z.z.4.{ O.O.O.*.4.v 9 x n 0.6.z.m.m.n.j.:.B -.-.M 3 b j.B.n.N 3 3 x &.&.&.O.4.B.B.B.B.u.p ",
"8 p , d.z.z.g.:.*.*.:.f.b.4.x 9 c ] :. ...=.X.| B -.B B -.B M N v.B.d.2 2 2 3 N | ] _ v ;.z.B.B.B.e.",
"5 C . 8 3.f.l.g.g.n.B.m.b.n.:._ _ =.6.|  . . .] N B -.B B B M B N.v.0.&.&.&.6.d.3._ v c v $.f %.%.$.",
"8 H ; p ; 6 %.d.j.n.z.z.l.g.*.` <.z.6.|  . . .m B -.B -.-.N M N -.-.j.v.v.z.z.l.l.f.O._ A H S W 6 K ",
"5 S & 7 u d H ,.f.g.z.z.g.f.=.6.m.n.| |  . .| n B -.B B -.N N N M B n.B.B.B.z.l.z.z.f.>.. u g p G i ",
"7 & % 7 u H 1 J g.z.z.z.g.f.n.B.B.d.c }  . .n m B -.-.-.n B M M M M d.B.B.B.B.h.l.z.l.3.F K W i = : ",
"S o G 5 R @ S %.z.z.l.z.g.j.B.B.B.| x |  ._ n n &.1.5.O.9 -.B M M M :.B.B.B.B.v.t ,.u.,.K 5 5 S S D ",
"5 w = & D 7 & u.z.z.l.0.d.v.B.B.f.x n h.z.:.n n | 2.1.v 9 -.0.i.d.B :.h.N.B.B.B.,.p S D C Z 4 S % S ",
"g < y U p S 6 %.f.3.#.7 y N.B.N.o.] v.B.B.B.g.n X.2.2._ x 4.B.B.B.j.i.i.J k c.c.k.g 5 7 = Z 8 -   # ",
"Y d p < U H u u q.H * & < c.h.Q q.h.B.B.B.B.B.4.2.2.2.] O.m.B.B.B.B.s.p + 4 8 U 8 = 8 8 7 7 D = C y ",
"= u P 5 & D ; 8 P e J p u #.~ r e.B.B.B.v.B.B.7.2.2.2.X.v.V.B.c.B.B.b.u C u K 5 G < 5 i 5 = i y / : ",
"C = H 7 - 7 & % Y Y P 8 w r.P P a.B.B.N.q.v.B.7.2.2.2.f.B.V.B.Y s.B.B.P V o 8 Y j Y = G 6 p = 5 = ; ",
"4 U 8 7 & - 8 6 H g > 8 5 g w j N.B.B.3.4 w.V.7.2.2.2.l.B.B.v.7 h b.B.g F & p j z ( 7 G   D 7 & C   ",
"- g > 4 7 : 7 i E K p 7 F u P t.B.B.c.p P K u.@.2.2.@.c.B.B.w.P i Y a.H 7 + % a ^ y.H % : D & . 7 D ",
"5 7 i 5 & : ; : 7 T 7 5 q.d u H N.k.U w S = 8 t.@.2.g c.B.u.P g u 5 6 8 5 & 4 a l s ( P = - ; # $ K ",
"& D C 5 7 - 7 Y % - - 7 q.p 5 H $.< U 7 = d P 6 u o.H a.8.P u * p 5 5 ; % 4 7 y y d Q Q % - : # . & "
};
