/* XPM */
static char *_d2e265054aa4f70f1468a6a14104421WUirOlX0DKkuZXtj[] = {
/* columns rows colors chars-per-pixel */
"50 50 157 2 ",
"   c None",
".  c #2D7D0A",
"X  c #286911",
"o  c #2A7912",
"O  c #2F701A",
"+  c #377D12",
"@  c #317322",
"#  c #3F7726",
"$  c #417C1C",
"%  c #427C2F",
"&  c #A57922",
"*  c #CC640E",
"=  c #D56505",
"-  c #DA6704",
";  c #D76806",
":  c #DC6B05",
">  c #D3660B",
",  c #D3690C",
"<  c #DB6D0A",
"1  c #DC720D",
"2  c #C76616",
"3  c #CC6412",
"4  c #CC6817",
"5  c #D36711",
"6  c #D16912",
"7  c #D86E14",
"8  c #DB7411",
"9  c #DF7815",
"0  c #D9741B",
"q  c #E16D03",
"w  c #E47305",
"e  c #E87403",
"r  c #E4750A",
"t  c #E47A0D",
"y  c #E97B0C",
"u  c #E37716",
"i  c #E67D13",
"p  c #E97E13",
"a  c #E47F1A",
"s  c #EA7F18",
"d  c #3A850E",
"f  c #31880D",
"g  c #39880F",
"h  c #2C8010",
"j  c #3E8710",
"k  c #3D8916",
"l  c #3D841B",
"z  c #3A891A",
"x  c #3E8420",
"c  c #438416",
"v  c #438A11",
"b  c #43871F",
"n  c #478B1B",
"m  c #499113",
"M  c #4B901E",
"N  c #53951E",
"B  c #478525",
"V  c #448D22",
"C  c #4D8C24",
"Z  c #4C8B2B",
"A  c #518F27",
"S  c #449122",
"D  c #519523",
"F  c #579824",
"G  c #55952C",
"H  c #57992D",
"J  c #5C9B2D",
"K  c #549431",
"L  c #5E9E32",
"P  c #5B953C",
"I  c #619C2B",
"U  c #619D33",
"Y  c #62963B",
"T  c #649E3C",
"R  c #65A22D",
"E  c #69A92E",
"W  c #62A134",
"Q  c #6CA237",
"!  c #6EA931",
"~  c #65A03E",
"^  c #6AA33B",
"/  c #6DAA3C",
"(  c #70A736",
")  c #71AC33",
"_  c #74AD3D",
"`  c #7CAE3C",
"'  c #78B033",
"]  c #7AB13A",
"[  c #5C9A43",
"{  c #649D40",
"}  c #6D9F46",
"|  c #60924C",
" . c #6AA145",
".. c #6BA843",
"X. c #6EA34A",
"o. c #73A644",
"O. c #73AA40",
"+. c #7AAD44",
"@. c #75AA4A",
"#. c #7DAE4A",
"$. c #77B246",
"%. c #7FB347",
"&. c #7BB14B",
"*. c #74A651",
"=. c #7EAF57",
"-. c #77AA5E",
";. c #AF9C3D",
":. c #CA851C",
">. c #E68116",
",. c #EA8116",
"<. c #E7821C",
"1. c #EA841B",
"2. c #DB8030",
"3. c #E98622",
"4. c #EC8A23",
"5. c #EC8C2A",
"6. c #ED922E",
"7. c #ED9334",
"8. c #EE9933",
"9. c #E7923B",
"0. c #E99339",
"q. c #EC9A3D",
"w. c #82B245",
"e. c #82BA45",
"r. c #83B648",
"t. c #82B84B",
"y. c #83AC59",
"u. c #84B551",
"i. c #84B45C",
"p. c #8CB759",
"a. c #8BB95B",
"s. c #A4A54E",
"d. c #85B261",
"f. c #8CB661",
"g. c #92BB6B",
"h. c #97BE70",
"j. c #9DBC74",
"k. c #9CBE7F",
"l. c #ED9C42",
"z. c #E79B51",
"x. c #D0AA56",
"c. c #F1AC57",
"v. c #F0AC5A",
"b. c #EBA863",
"n. c #E4B067",
"m. c #F2BB70",
"M. c #95C249",
"N. c #9AC34D",
"B. c #9AC055",
"V. c #99C358",
"C. c #A1C147",
"Z. c #A6CF52",
"A. c #A5D550",
"S. c #93C067",
"D. c #9BC174",
"F. c #9FC17F",
"G. c #B1DC60",
/* pixels */
"                                                                                                    ",
"                                                                                                    ",
"                                                                                                    ",
"                                                                                                    ",
"                                                                                                    ",
"                                                                                                    ",
"                                                                                                    ",
"                                                                                                    ",
"                                                                                                    ",
"                                                                                                    ",
"                                                                                                    ",
"                                                                                                    ",
"                                                                                                    ",
"                                                                                                    ",
"                                                                                                    ",
"                                                                                                    ",
"                                                                                                    ",
"                                                                                                    ",
"                                                                                      w.+.h.        ",
"                                                                                      J R g.y.p.    ",
"                                                                                      @.*._ w.]     ",
"                                                                                      ^ G ! w.t.w.i.",
"                                                                                      T N R { ^ / @.",
"                                                                                  o. .D n J $.U U O.",
"                                                                                U T K P -.P =...L ^ ",
"                                                                              O Z S h o x z A H $./ ",
"                                                                  d.        $ O B c f . j v M W J G ",
"                                                          3 * 6 & j.      V.w.c + D g m d . k P  .X.",
"                                                    3 , < < 1 >.:.;.s.B.N.N.M.J X A + n S z D d.f.  ",
"                                              3 = - < u i i <.4.8.c.x.C.Z.G.A.' % } | P [ ..=.=.a.g.",
"                                          6 = - q r t 1.1.6.8.q.c.m.n.          % V Z V J ~ _ S.g.D.",
"                                      , - q q e y 4.4.4.6.q.l.l.l.v.b.            l k F ) $.] %.X.#.",
"                                5 > = q r y p 1.5.7.7.7.7.4.5.0.0.9.z.            l C Y Q f.D.a.k.F.",
"                            * ; - e w p 1.4.0.5.7.6.1.y ,.y p 9 0 2.                J       }   Q u.",
"                      2 > ; < w e 1.1.5.7.3.5.3.1.y e q < ; 6 4                       z F   Z I /   ",
"                  6 , 8 r r p ,.3.3.3.3.,.y u r ; - > * 2                                   E ! `   ",
"              , ; r u 1.>.1.s s i y q q q ; > 3                                             e._ )   ",
"          5 < r ,.3.1.1.p i w < < ; > 6                                                     r.  ) w.",
"      < 1 t ,.3.,.,.p q q : > 5                                                                     ",
"  2 8 t >.>.w i < - 7 5 6                                                                           ",
"  * 1 u 8 ; > 8                                                                                     ",
"                                                                                                    ",
"                                                                                                    ",
"                                                                                                    ",
"                                                                                                    ",
"                                                                                                    ",
"                                                                                                    ",
"                                                                                                    ",
"                                                                                                    ",
"                                                                                                    "
};
