/* XPM */
static char *_1a500ef1b4048dbc24a1f1bfb501db2hPb1jcpnXArmAk8Z[] = {
/* columns rows colors chars-per-pixel */
"50 50 144 2 ",
"   c None",
".  c black",
"X  c #020201",
"o  c #050403",
"O  c #050503",
"+  c #060503",
"@  c #090705",
"#  c #0C0A06",
"$  c #0A0909",
"%  c #0D0B08",
"&  c #0E0B08",
"*  c #0C0B0A",
"=  c #0E0D0B",
"-  c #0C0B0C",
";  c #0E0D0D",
":  c #0F0F0E",
">  c #100E09",
",  c #130F0B",
"<  c #100F0D",
"1  c #13100B",
"2  c #16120D",
"3  c #17130D",
"4  c #16130F",
"5  c #1B160F",
"6  c #0F0F10",
"7  c #111211",
"8  c #131210",
"9  c #121213",
"0  c #141210",
"q  c #141415",
"w  c #151516",
"e  c #161717",
"r  c #1A1611",
"t  c #1A1711",
"y  c #1C1710",
"u  c #1B1813",
"i  c #1E1911",
"p  c #1D1B13",
"a  c #1D1B16",
"s  c #171718",
"d  c #181919",
"f  c #19191A",
"g  c #191A1A",
"h  c #1C1C1D",
"j  c #211B12",
"k  c #211C13",
"l  c #231D13",
"z  c #221C14",
"x  c #231C14",
"c  c #231D14",
"v  c #211C16",
"b  c #211D16",
"n  c #231E17",
"m  c #251E15",
"M  c #282217",
"N  c #2A2317",
"B  c #2A241A",
"V  c #2E261B",
"C  c #29241C",
"Z  c #2E261D",
"A  c #2F281C",
"S  c #31291C",
"D  c #32291D",
"F  c #332B1D",
"G  c #31291E",
"H  c #352B1E",
"J  c #362E20",
"K  c #3A3022",
"L  c #3A3122",
"P  c #3C3222",
"I  c #3C3423",
"U  c #393125",
"Y  c #3E3426",
"T  c #403525",
"R  c #413627",
"E  c #413727",
"W  c #433827",
"Q  c #423828",
"!  c #433829",
"~  c #433B29",
"^  c #453A29",
"/  c #463B29",
"(  c #443A2B",
")  c #473D2B",
"_  c #4C412C",
"`  c #4E402C",
"'  c #4D422E",
"]  c #52452F",
"[  c #514530",
"{  c #524431",
"}  c #524631",
"|  c #534632",
" . c #544630",
".. c #5C4D37",
"X. c #5D4F37",
"o. c #5C4E38",
"O. c #5F4F38",
"+. c #5F5038",
"@. c #615339",
"#. c #625239",
"$. c #63533A",
"%. c #62523B",
"&. c #63533B",
"*. c #63553B",
"=. c #64543B",
"-. c #67553D",
";. c #64563C",
":. c #69583C",
">. c #6C5A40",
",. c #6C5B40",
"<. c #746243",
"1. c #746344",
"2. c #746245",
"3. c #766245",
"4. c #776446",
"5. c #766447",
"6. c #776547",
"7. c #7C6849",
"8. c #7D694A",
"9. c #7E6A4A",
"0. c #806B4A",
"q. c #826C4A",
"w. c #826C4C",
"e. c #826D4C",
"r. c #856E4D",
"t. c #84704E",
"y. c #86714E",
"u. c #87724F",
"i. c #8B7551",
"p. c #8F7854",
"a. c #907854",
"s. c #917A54",
"d. c #927B55",
"f. c #937C56",
"g. c #967E57",
"h. c #957F5B",
"j. c #9C835A",
"k. c #9C825B",
"l. c #9D835B",
"z. c #9F855D",
"x. c #A68B5E",
"c. c #A48960",
"v. c #A58A60",
"b. c #A68B62",
/* pixels */
"                                                                                                    ",
"                                                                                                    ",
"                                                                                                    ",
"                                                                                                    ",
"                                                                                                    ",
"                                                                                                    ",
"                                                                                                    ",
"                                                                                                    ",
"                                                                                                    ",
"                                                                                                    ",
"                                                                                                    ",
"                                                                                                    ",
"                                                                                                    ",
"                                                                                                    ",
"                                                                                                    ",
"                                                                                                    ",
"                                                                                                    ",
"                                                                                                    ",
"                                                                                                    ",
"                                                                                                    ",
"                                                                                                    ",
"                                                                                                    ",
"                                                                                                    ",
"                                                                                                    ",
"                                                                                                    ",
"                                                                                                    ",
"                                            o           +                                           ",
"                                  4 3 > x G } K i c B A @.] 3 +                                     ",
"                                + _ 6.} K G C c 0 u c c U ( ^ _ M %                                 ",
"                            5 c x _ Y = 9 g e q s g w e h 9 * ( -.^ r #                             ",
"                          k w.a.3.E N r ; ; - : a 8 - 9 4 u p } 0.O.3.G                             ",
"                      . # G w.f.u.a.=.y.) o.@.1.t.1.E V ] *.+.<.:.6.h.@.3                           ",
"                    . G 7.f.x.{ >.b.k.b.s.7.i.l.l.      r.@.o.>.(   7.=.E                           ",
"                  . @     x.a.K q.b.  -.H     k k                     I X.J >                       ",
"                                                                        E   ^                       ",
"                                                                                                    ",
"                                                                                                    ",
"                                                                                                    ",
"                                                                                                    ",
"                                                                                                    ",
"                                                                                                    ",
"                                                                                                    ",
"                                                                                                    ",
"                                                                                                    ",
"                                                                                                    ",
"                                                                                                    ",
"                                                                                                    ",
"                                                                                                    ",
"                                                                                                    ",
"                                                                                                    "
};
