/* XPM */
static char *f8c564a8baac4c1c9582d958a0639430bD6psm6qjIoT99Nt[] = {
/* columns rows colors chars-per-pixel */
"50 50 135 2 ",
"   c #173208",
".  c #0E4704",
"X  c #0D4C02",
"o  c #134506",
"O  c #114E08",
"+  c #0E5404",
"@  c #0D5A02",
"#  c #135504",
"$  c #145C04",
"%  c #185D05",
"&  c #155509",
"*  c #1A540A",
"=  c #165C0A",
"-  c #1A5D0C",
";  c #156303",
":  c #1A6405",
">  c #166902",
",  c #1C6B05",
"<  c #166209",
"1  c #1B640A",
"2  c #1D6B0A",
"3  c #1D7305",
"4  c #1F7A04",
"5  c #1E730A",
"6  c #1F7A0A",
"7  c #1D6311",
"8  c #216D06",
"9  c #21660B",
"0  c #2A650D",
"q  c #226D0C",
"w  c #2A6C0E",
"e  c #217307",
"r  c #237A06",
"t  c #24740B",
"y  c #29740D",
"u  c #257B0C",
"i  c #2A7C0D",
"p  c #216412",
"a  c #246C11",
"s  c #2A6C12",
"d  c #256318",
"f  c #27681D",
"g  c #257412",
"h  c #2A7512",
"j  c #267C12",
"k  c #2B7C13",
"l  c #267519",
"z  c #2C751A",
"x  c #2E7E1A",
"c  c #327314",
"v  c #317E15",
"b  c #337C19",
"n  c #2C7B22",
"m  c #307223",
"M  c #278306",
"N  c #26820D",
"B  c #2A830E",
"V  c #27880C",
"C  c #2B890F",
"Z  c #30860F",
"A  c #308C0E",
"S  c #268211",
"D  c #2C8313",
"F  c #2C8611",
"G  c #2A8114",
"H  c #298216",
"J  c #2C8314",
"K  c #2F8316",
"L  c #2E8514",
"P  c #2F8417",
"I  c #2A8913",
"U  c #2D8912",
"Y  c #2D8C13",
"T  c #2F8C16",
"R  c #2E8419",
"E  c #2F8419",
"W  c #2F891A",
"Q  c #338011",
"!  c #308613",
"~  c #318315",
"^  c #338017",
"/  c #318716",
"(  c #368415",
")  c #398616",
"_  c #328A15",
"`  c #338D14",
"'  c #348E15",
"]  c #348C16",
"[  c #328118",
"{  c #32831B",
"}  c #308619",
"|  c #33841A",
" . c #358619",
".. c #39851B",
"X. c #3A831D",
"o. c #32891A",
"O. c #348A19",
"+. c #358E1D",
"@. c #368C1E",
"#. c #39891B",
"$. c #3A8C1C",
"%. c #3A8C1D",
"&. c #398E1C",
"*. c #2F9214",
"=. c #359213",
"-. c #379117",
";. c #31901C",
":. c #32921C",
">. c #389318",
",. c #38901A",
"<. c #3A931D",
"1. c #3A901E",
"2. c #3C921D",
"3. c #3C981E",
"4. c #378220",
"5. c #3B8620",
"6. c #378A20",
"7. c #368E20",
"8. c #398C22",
"9. c #3C8C22",
"0. c #3B8C2C",
"q. c #379121",
"w. c #399320",
"e. c #3C9322",
"r. c #3F9925",
"t. c #43831C",
"y. c #448421",
"u. c #438C25",
"i. c #419524",
"p. c #459824",
"a. c #43952D",
"s. c #489229",
"d. c #469B2B",
"f. c #48992A",
"g. c #47A225",
/* pixels */
"t T 5 t  .t = } ` - D w a i i B D y y D e B 3 N N ; K t y $ k y 9 y 8 @.8 a k y x u = 9.y O.= ;.u : ",
"t e > T E : j @._ t r t >.&.y D t h k y t 3 N u I O.q b x > t u ; ~ ] & H R , :.k g , q ~ k H u 2.* ",
"i U e T 2 P 2 i P k 3 k U U t -.9.h 9 y 8 E 3 > 3 , k 0  .k H : k  .i y t R 3 D , % } 2 q E q ~ v s.",
"y , i u ; t h #.Z t >.5 t B t N w h h 8 y 2 t > 5 k K h c v < w.- 8 ^ i 2 k v T < j k x t z y x > u ",
"u F u t E g k B r t <.= i ] 2 u 2 t k P , e > R y y t v w y.X.y >.t 8 % $ , @.y u } 2 } H g k q 1 g ",
"j G t P t [ ~ u B w v x v t k r y B B u u t , g 1 1 $ } b y.c c y ^ v i 2 y g &.H t k v E k t ~ q b ",
"u G u 5 u t i i r v [ @.i y t } r = , u B u $ 5 y g w w.y a u.0 t.c b w P @.t h &.g w.t , t h z , - ",
"O.u k > e D 8 >.; u = q $.&., , N j . u B r j g H a 9 y u q &.c y w &.k k K u y y D H t } h &.v h k ",
"e u 2 E @ ; t u i u W q v 2.; u u > 3 : y 8 @ t j [ ~ t : x 7.G i q X.&.v >.2 t j 2 8 h z [ e.2 z x ",
"> , i u 3 t u @.u ; j } y i ) % 1 ~ B k u < 2 @.t R 7 9.q q O.h i h t z h <.1 q k <.: t T 6.h q O.z ",
"3 6 $ N I B y g ..u 5 2 D t 9 : @.v u > , j #.&.&  .b t k j 1 P P t k , k u  .h z q , t 2 z s 4.k w.",
"> > r B ; 3 ;.E e ( y D % i &.i % = } t v ~ i q } q ~ O.q b v - k q [ b D 8 O.k g t g 1 q e.h a g k ",
"j , 3 D P D h k K y y y k ~ 1 i u t = ~ $.1 ! s x g j 4.a - z K k i q <.P ~ u k t N t 1 a O.b E g - ",
"t W ; : } h k q > P G , q ~ t u k u , h @.i D y q t k h v y t i F O.q k u } ~ F t 3 N F t d.a 7 P } ",
"& > 8 , q v 2 > D > t u t 5 i e ~ : i i 8 k k t u $ h c q H t r j t 3.8 < @.j 1 r W 5 x @.c i.q g u ",
"t g c  .k 2 @.` i i k % g t :.r t g k w.1 2.i ~ u H h b [ 9 ~ i k t t O.t q q.5 T > u u 9.9.} 2 t ` ",
"v s s v ^ t U t ~ i ~ y O.h v u P h k j O.y ~ G i D k ~ 1 k j u k <.i - &.! t k k 2 _ I k  .z 9 K u ",
"h v w k f.t t i ! u u k v &.y G u e.O., s 9.~ u T _ < $ K k t 5 j > @.! P r t k [ [ 3 i k b u.B > 3 ",
"8 k ) w i.D u t i u u ~ w k k @., u t y u i.v D ; u I e z h x R k t k &.D 8 @.y u H u u $ { e.1 y > ",
"i 8 Z q &.i t } t k v ~ G 8 8 i g r :.3 t P ~ y H e O.G t } t k x y k h &.8 t k q E 1 P q s | v t t ",
"B % k ~ y r i u ~ ~ q 8  .t e 8 ~ _ r , , i u ~ 8 8 u 2 r $ D ~ * i i b [ 8 k k ~ k g #.w [ @.i , e ",
"i } o k i C A D ! 2.y i i ~ B t y u B P ` u > G B t > k y 5 5 K v e ~ t h z t k _ $ @.@.i z #.B ` B ",
"8 t u ] 8 i e.b h D r C u k t t @., , ] , T t u V > r H t j t p @.e t O.z , 9.v t i ~ i , k ~ -.e u ",
"] k 3 i i ] ] 6.8 8 V e 2 i : t 8 4 B > u e T B ; B ~ @.i 8 < e.u ` g y ..& a p. .h >.B < e.1 k ~ O.",
"> t > u e r N t i i C r B N 5 S : B t , , < 3 W ; > , ~ k : e O.: u.8 e.u h  .~ v ~ 8 u R ( y k h t ",
"_ : _ i r t i 8 >.t i =.3 > j K > k <.&.> ~ 2 , > 5 ; 5 > $ , 3 , P e , j i @.~ B : 8 G q d 9.k q q ",
"j j H u r u r : H t 3 I > 4 2 > A > u H &.N u > F 5 < 5 r 3 3 P B = u $ - :.2 g A e : k z k q h v [ ",
"g w.8 N > u E > $ H ; r N S r 6 C 4 F j = r 4 O.; $ H , > u _ o r G + P t , y r < t I , K u q E y v ",
"j , N I 3 > > 6 > q < B u > u G > I 3 , S > u +.v 1 $ t j + <.u D U u 3 5 # _ i y : ~ ; N e 2 t 8.k ",
"t t t > 3 4 N 3 U D : 3 , > ; > r : , _ $ > g k 8 9 , r : 6 > t ~ P > E + F t v i i 3 N Y e k g y t ",
"k v 5 3 r > X j N 5 t N > 6 > < + ; B ~ ; 6 > ` ; 9 k , , t 2 < ` B u $ ~ k < t i 3 3 S B u t O.t 5 ",
"q 1 5 S 3 , > @ 3 t i 1 u > t j ; g 4 ; I u + C % : > 3 > $ + j k j B C @.t k > : u i i * > > u q ] ",
"j B h - j N > $ u $ t 8  .a e.B k $ t 3 P i < e ; : 5 3 @ g 2 j W ; > k } v u ;.i t &.v ~ B , r < :.",
", @.h y , r h > r j P 2 2 2 x  .&., + ! j t 5 2 r # > S 6 g 5 g 5 . N ; b 2.t P B y q &.- ~ u 5 ~ k ",
"G s ~ 5 > r < j N 1 G % $ 2 $ l K q # r = W u - =.g > > $ : K u u @ W g & q i i k t i ] ] : t G y k ",
"i k + r , t $ , ` q t $ j j : $ 1 7.O.g 5 q O K h j > S q q z i @ 5 T   X.! C 8 t u D i k t ~ = e.e.",
"e B % e t t 8 x u z < , u k } $ k $ u g &.) 1 i X.: > > # { k r > 2 5 E x B U , ! P u D t u.1 t 8 t ",
"u ~ 2 R 5 , u y T . < O.t r i : : D > p E y K 2 q ~ > j a a # i 2 5 ; : 8 ` r &.< U =.=.C B ~ 2.t _ ",
"t G , u j x k D , 2 5 g < : q g u G > , t k } q 2 ; H ; q.5 t S u + v & ` ` i = <.=.N ` $ h v k _ k ",
"i , > u k k y t h G a k ! < = q @.> x r 3 q e.y H r > P a , I t < h $ k g.- N e 3.<._ e P O.3.k 2 t ",
"H : E t <.- ~ t ~ s w k 9 ~ # % h 8 t 9 i i 1 ( t , O.i 2 S i $ @.y b h k x r 2.* ` <.t U t t P S _ ",
"t a 2 2 T u > 2 @.h ~ + } ! 8 - u.d &.- k , i c y k , &.i # <.i 2 7 @.q e h ! B r i B U B ! e G > I ",
"v 8 y W k H t h 9.y g t = k y u...v v &.D 8 : ..v I k u r r t 8 1 z i z 8 * ` 8 A D t i 8 ! i 3 @ ; ",
"#.b k 2 O.~ h s i.v - , > k @.b p.v ) r i U , , ] t <.` , > B , v D C j $ e i @.y 9 i i u u ` > S g ",
"q v ~ r > U t i ( s ) k g k 9.f q.P v v t t S ` , k B t D 8 u N U t B t D g _ 8 E q y k y 1 G t q.u ",
"S 1 ~ t r u > 2 9.&.} k s a.4.v 2 P ~ : k 1 j ~ k ~ 8 ~ u 3 r t i r y g M - i &.v @.2 E t x 2 t 2 5 ",
"t @.k u > , B t v v 8 i t v q z O.5 K , t k k y v b k t , -.T t 2 i 3 , H , x b m r.u ` @ Y u , S @ ",
"3 k 8 e u r u H #.] k u [ h } 9.i u S t O.P D , y y q i ` ` ~ ~ j u i u r $ 1 l 0.d.} > 5 Y , $ u I ",
"r y k t , 5 5 r u -.r t i.c z t t H W 2 H 2 y s.q { a E O.z b ~ x t y u e , 8 g n m e.E 5 3 5 ; : *.",
", T B 5 6 3 u &.> 5 5 u i.~ t S u , <.y 8 x @.y q h b k a } h 9 z t t e , e u g g [ 5.5.> 3 u $ $ , "
};
