/* XPM */
static char *result[] = {
/* columns rows colors chars-per-pixel */
"50 50 92 1 ",
"  c #222121",
". c #3A3737",
"X c #0E4704",
"o c #0D4C01",
"O c #124306",
"+ c #154F07",
"@ c #0D5B01",
"# c #135602",
"$ c #145D04",
"% c #185D05",
"& c #17570A",
"* c #1A550B",
"= c #165D0B",
"- c #1A5C0D",
"; c #156403",
": c #1A6405",
"> c #176902",
", c #1C6B05",
"< c #176108",
"1 c #1B640A",
"2 c #1D6B0A",
"3 c #1D7305",
"4 c #1F7806",
"5 c #1E7209",
"6 c #1F7A0B",
"7 c #1D6311",
"8 c #216C07",
"9 c #21660B",
"0 c #2A650D",
"q c #226D0C",
"w c #2A6C0E",
"e c #217306",
"r c #227A07",
"t c #24740C",
"y c #29740D",
"u c #257B0C",
"i c #297B0D",
"p c #206610",
"a c #256C11",
"s c #296C13",
"d c #257412",
"f c #2A7512",
"g c #267C12",
"h c #2B7C13",
"j c #267519",
"k c #2A761A",
"l c #2E7E19",
"z c #327314",
"x c #317D15",
"c c #337D19",
"v c #2C7B22",
"b c #307223",
"n c #827C7C",
"m c #278306",
"M c #26820C",
"N c #2A830E",
"B c #2C890F",
"V c #30860F",
"C c #268212",
"Z c #2C8313",
"A c #2D8A14",
"S c #2F8419",
"D c #2F8819",
"F c #318315",
"G c #398616",
"H c #328B16",
"J c #33841A",
"K c #39831A",
"L c #348B1A",
"P c #3A8D1D",
"I c #359214",
"U c #34921B",
"Y c #39921C",
"T c #3C981E",
"R c #398520",
"E c #378A20",
"W c #3B8C22",
"Q c #3B8C2C",
"! c #379121",
"~ c #3C9421",
"^ c #3F9925",
"/ c #43831C",
"( c #438521",
") c #428C26",
"_ c #419425",
"` c #489226",
"' c #43952D",
"] c #489229",
"[ c #469B2B",
"{ c #B7B3B2",
"} c #DBD2CA",
"| c #EFE9E7",
/* pixels */
"tA5dLq%DH-FyaiimZfyFeN3iM;Jqy%gh9t9Pqqgthh=WtJ=Uu1",
"tr>ZZ2gEHqrtYPyVtfhye3MMADqch>ty:SH=Zh2Uhfq2ShZiY&",
"iZeH3D2iBhegBZtYPf1y2H3,3:h9GgC2gGyttS5C,-Z2wDqJh`",
"y,iM$qhKVtYq3BtMsyfqd:u>5gJhzc%!%8Gi2hZL<ghhdftg>h",
"iZitSdhirtT=iH2iqtgZ2t,htitFw(KyYy8:$2PyiZ1Lldhq:d",
"gZ5ZtJFumwZlhtgufmBir52211#Jc(zzyFxi2tdLZthFDtdGql",
"uCi3uthNtxJLhytZr%,iZi@tddw!ya)0/zcwFLdfPd!t5tfh1-",
"Lih>eM8Y;......>MgXtNrgdlq9tiwPzywPhhFiidAZtSdGcfh",
"eu:L@;tiM.}{nnn..>3:u8@ggZDt%SWZiwJWzY,5g:tafJ~2jc",
">,iu36tP..{}{n{{n.iZi=2LtJ7Ww,LtiyyhiT1ahY:tDEfqLf",
"36@MANy.}}nn{{{n....:gPP*JFthg1FZdh2gtJflq2t1hsRh!",
">>6Z;e.}||||{{n.|.nn.FiqJqFJqcx-iqcShtHhded1a~fasZ",
"M,3Zh.}|||||}{}||.{n.:ZahgfJa-hShitPZLtZtMt1qJJld1",
"tD;:.}|||||||}{}}.nnn.ZfathdcyqiZJaiiLZZt5MMd[apZJ",
"&:t.}}||.n|||}{n.nn{{{.................>uDthEz_qdu",
"5d.n|||||||||}{nnn{}}}{.{{{}}}}}}}}{{{{...ugEWJ,tD",
"h.}||||||||||{{n{{}}}|}}}}|}}}}}}}|||}}|||..hGfqZi",
"y...n|||||||}{{{{}}}||}}|||||}}}||||||}}||}}..WZ>,",
"q.n.||||||}}{{{{{}}||}}||||||||}|||||||}|||}}{.1i,",
"i.n.}}.}}}}{{{{{}}|||||||||||||||||||||||||||}{.55",
"N%.n..n}}}{.n{{}}|||||||||||||||||||||||||||}}{{.e",
"iFO.....nn.n{{{}|||||||||||||||||||||||||||||}}{.Z",
"8urP8r~c..nn{{{}|||||||||||||||||||||||||||||}}}.u",
"HieuiYHPq.n{{{}|}|||||||||||||||||||||||||}||}{}.H",
">q;MerMti.{{{}}}}}||||||||||||||||||||||||}}|}{{.t",
"A,Dirtut.nn{{}}}}||}||||}||||||}||||}||||}}}}}{{n.",
"gggirur1.nn{}}}}}|}}||||}}||||}}|||}}}|||}}}}}{{n.",
"d~qm>uF>$.n{{}{}}}}}||}|}}|||}}}}||}}}}}|}}}}{.nn.",
"g1NM4>;6>.n{{{}}{}}}||}}}}}||}{}}|}{}}{}{}}}{{.n..",
"tt6>34m3A.nn{{}{{{}}|}{}}}}|}{{}}}}{{{{}{}}{{nn.tt",
"hF53M;ogM.nnn{}{{{{}}}{}}}{}{{{{}}}{{{{}{}}{nnn.tt",
"q16C3>>@3t.nn{{{{{{}}}{{}{{}{{n{{}{{{{{{{{{nnnn.qH",
"hNf%iM>$u$q.n{{{n{{}}{{{{{{{{nn{{{{{nn{{{n{nnn.u:L",
">Pzt,rd>ugZ.nn{{nn{}{{n{{{{nnnnn{{{nnnn{nnnn..utHf",
"gaD5>u<gm<Z.nn{nnn{{{nn{{nnnnnnnnn{nnnnnnnn.H1egtZ",
"ih#r,t$2Awt$.nnnnnn{nnnn{nnnnn...nnn....nn.iytG%^Y",
"tN$ttt2Zij<1.nn....nnn.nnnnn..ht:...n n{.. At)1tqq",
"iF2g5,ytDo<Lt..n.||.n.h..nn.2a#i, nnn n}}n UABFYtD",
"tZ>ighhH,55g< nn {|| hJq2..<QteC nnn  n|}n H%fciHi",
"u3,thcytyZagZ {n }|| q~dir,Z52A6 nnn  n|}{ nZHTg2t",
"Z%Dt!<ZqJswh9 .. }}} h1Gy,Hu2Zi$ {nn  n}|}{ FttZgU",
"ta15Di,2JfHoJ . nn}{ ,gzyh8Pu+Yi ... f {}}{ NHtM>A",
"cqtDiZtdWiat$   ...n ,1GiZZurru8 ... = .{{n 8Vi3@;",
"PchqLFhs_c1,>lL ... iZ,,HtYA,,m,    $t .... iuA2g6",
"2hFt,A6yKsGhdhW ..  ttCLeZitZ8uMAuBwZd .... t2hd!g",
"M9Fu3r>2PPJhs'v    :h7gZgF8Fi,ututt6m%     Dth2t23",
"tPii,3iyhF8idcwhH3Z8qiiiFczt,IA52i,3Z,hSb^iZ@Au>i@",
"3h8euruZYFiiZfJWiuCdHAh2yyqNHHHZggiii=1jQ[J>3A5$iA",
"eugt,t56uUue_zfdtZD2Z2f]aJaJLfcKhtyit>qdvkQJ236$,D",
",DMru3uY>33i^Ftgg,Ly8lLyqfShpJh9htt2,euddJRP>3u;$>"
};
