/* XPM */
static char *result[] = {
/* columns rows colors chars-per-pixel */
"50 50 89 1 ",
"  c #222121",
". c #3A3737",
"X c #0E4704",
"o c #0D4B01",
"O c #0D5B01",
"+ c #135603",
"@ c #135C04",
"# c #185D04",
"$ c #17570B",
"% c #1A550B",
"& c #165D0B",
"* c #195C0C",
"= c #156303",
"- c #1B6405",
"; c #176903",
": c #1C6B05",
"> c #176208",
", c #1C640A",
"< c #1D6C0A",
"1 c #1D7305",
"2 c #1F7806",
"3 c #1E7209",
"4 c #1F7A0B",
"5 c #1D6311",
"6 c #216C07",
"7 c #21660B",
"8 c #2A650D",
"9 c #226D0C",
"0 c #2A6C0E",
"q c #217306",
"w c #227A07",
"e c #24740C",
"r c #29740D",
"t c #257B0C",
"y c #297B0D",
"u c #206610",
"i c #256C11",
"p c #296C13",
"a c #27681D",
"s c #257412",
"d c #2A7512",
"f c #267C12",
"g c #2B7C13",
"h c #267519",
"j c #2C751A",
"k c #2E7E19",
"l c #327314",
"z c #317D15",
"x c #327D19",
"c c #2C7B22",
"v c #307223",
"b c #827C7C",
"n c #26820C",
"m c #2A830E",
"M c #2C890F",
"N c #30860F",
"B c #268212",
"V c #2C8313",
"C c #2D8A14",
"Z c #2F8419",
"A c #2F8819",
"S c #318315",
"D c #398616",
"F c #328B15",
"G c #33841A",
"H c #39831A",
"J c #348B1A",
"K c #3A8C1D",
"L c #359213",
"P c #34921B",
"I c #39921C",
"U c #3C981E",
"Y c #398520",
"T c #378A20",
"R c #3B8C22",
"E c #3B8C2C",
"W c #379121",
"Q c #3C9322",
"! c #3F9925",
"~ c #43831C",
"^ c #438521",
"/ c #428B25",
"( c #419425",
") c #43952D",
"_ c #489229",
"` c #469B2B",
"' c #B7B3B2",
"] c #DBD2CA",
"[ c #EFE9E7",
/* pixels */
"eC3sJe@GF*SriyymVrrgqm1nm=G9r>yf7r6K9<kekg&TeJ&Pt-",
"ew;CZ-fTFeweLKrSeggye1ntCA9xg-qr=SG@VV:Pge99ZgVeU%",
"yVqC:Z<tVg6fFCeLId7e6Z1:1<d7GgV<gGrrsZ<m:*V<9G9Gg_",
"r:yy@edKMeIq:Cqg0pd9e<t=:BSglz&W*6Dy<gZC=fggrjeg;y",
"tVteGsgmwqU&yF:t9egV69;gryqS0^~rKw7-@<KrtG<Ggsg9-s",
"fVqZeGStm0SkzegtrnMtwe<e,*#Gz^lrrFNr<esKVegxAfeS9k",
"tVn1teymwzGJgreVw@6nmtOeed0Qrp/8~lx6zKsdKsWt<epg,*",
"Jtg;qy6I@t&9KK:;nfXeVwfsVuueeeRlr0/gyZtteVVeAdKkdk",
"qe;JO=et......=ft;:;r:OtfZGq-kRVg9HKlU:ef<9sdG!,gj",
"=1gt3weK.]'bbb..,GnVf><JeZ5R96JstdrjeU,9jK;qATd9Gj",
"14@nCme..']'b''b.St>;gKK%GGegg,SVej6ydJdg9<e<dpYgI",
";;2m=q.]]bb'''b....ezSy9G6SA<xz$g9SSVqZgdqs,u!didV",
"V:1VS.][[[[''b.[.bb.K-SigfdZs*jSgyeKZSeVqn3,iGVZs&",
"3A@-.][[[[[]'][[.'b.KyVdiegdxrqySJ9ftJSVeenVe`puVJ",
"$;q.][[[[[[[]']].bbb.yket+dj9VreteP3=Kf,2A3gTj(9et",
"<d.]][[.b[[[]'b.bb'''.................W3C1tfTRH6eZ",
"g.b[[[[[[[[[]'bbb']]]'.''']]]]]]]]''''...9FmjGd6Vt",
".][[[[[[[[[[''b'']]][]]]][]]]]]]][[[]][[[..nVj(y-1",
"...b[[[[[[[]'''']]][[]][[[[[]]][[[[[[]][[]]..GQ,t;",
".b.[[[[[[]]''''']][[]][[[[[[[[][[[[[[[][[[]]'.HSee",
".b.]].]]]]''''']][[[[[[[[[[[[[[[[[[[[[[[[[[[]'.V:q",
"y.b..b]]]'.b'']][[[[[[[[[[[[[[[[[[[[[[[[[[[]]''.Fm",
"6t.....bb.b'''][[[[[[[[[[[[[[[[[[[[[[[[[[[[[]]'.eq",
"FyqtyLG..bb'''][[[[[[[[[[[[[[[[[[[[[[[[[[[[[]]].FJ",
";e=nqwne.b'''][][[[[[[[[[[[[[[[[[[[[[[[[[][[]'].de",
"C-Cywere.''']]]]][[[[[[[[[[[[[[[[[[[[[[[[]][]''.99",
"ffVteww.bb'']]]][[][[[[][[[[[[][[[[][[[[]]]]]''b.G",
"sQ6n;tF.bb']]]]][]][[[[]][[[[]][[[]]][[[]]]]]''b.z",
"f,mB2==4.b'']']]]]][[][]][[[]]]][[]]]]][]]]]'.bb.g",
"ee4;22n1.b''']]']]][[]]]]][[]']][]']]']']]]''.b..9",
"gS31w;oB.bb'']''']][]']]]][]'']]]]'''']']]''bb.F9e",
"9,4B2;;O.bbb']'''']]]']]]']'''']]]'''']']]'bbb.t6F",
"gMr-tn=@t.bb'''''']]]'']'']''b'']'''''''''bbbb.t>J",
"-Jde;wd:ns.b'''b'']]''''''''bb'''''bb'''b'bbb.teFr",
"ViG31w>fn,.bb''bb']''b''''bbbbb'''bbbb'bbbb..-qVtk",
"yd+w:e@:Mq.bb'bbb'''bb''bbbbbbbbb'bbbbbbbb.mdeS@(I",
"qV@eee9gtj>.bbbbbb'bbbb'bbbbb...bbb....bb.yCr/,999",
"tS<g3:teCo>.bb....bbb.bbbbb..9+t... bbb.. LLMMSUeF",
"eV:tfkgF:<3 ..b b[.b.g..bb.&R3eBt b b''b LnF@jzyJt",
"t:;tgz9rdV bbb  b[]  bQr..;Zi:Ce, b b[]' IFqVJIg<t",
"V#AeW>V9Gp 'bb  b][]' ,Jr:Ft<Vy+K ' ][]' FKeCeeVfC",
"r9,<Ct:<Gd ... $ ']]' glrg6Ky+Iy< . ']]' yVCmNqV:C",
"z9eAgVes/y ... / .''b -DyVVtwww6, . .''b Vty6Ny1O=",
"Kkk6FGgp(z    Kx .... :-JeIF:;m:y   .... ,tyttC<Be",
"9jGw:CegHpDgsjRa .... fCqVyeV6wnFtM .... 9egr,VeWf",
"t6Se1w:;KKGgp)HS     5fZyS6St1tetee     zK<Aek<e<3",
"qJyy:1yrzS6ysz9jF3V6qggyVHgr:LCq<yq:V:gxv!tAOCt;nO",
"qV6qtwtnIGgtVsGKytBeJCg6ep6yFJGVfyytt&,hE`G;2C:@tC",
"etge:433tPtq(xgeegG<V<y_0GsVJdxHgerye;esch(G<14@-F",
":Cnet1tI;11t(zegf:Pe<kGrudZkuGg7jeeq:qtehxYY:14=O:"
};
