/* XPM */
static char *result[] = {
/* columns rows colors chars-per-pixel */
"50 50 92 1 ",
"  c #222121",
". c #3A3737",
"X c #0E4704",
"o c #0D4D02",
"O c #124306",
"+ c #0D5B01",
"@ c #135602",
"# c #135D04",
"$ c #185D05",
"% c #15570A",
"& c #1A550B",
"* c #165D0B",
"= c #1A5C0D",
"- c #156403",
"; c #1A6405",
": c #176902",
"> c #1C6B05",
", c #176108",
"< c #1C640A",
"1 c #1D6B0A",
"2 c #1D7305",
"3 c #1F7806",
"4 c #1E7209",
"5 c #1F7A0B",
"6 c #1D6311",
"7 c #216C07",
"8 c #21660B",
"9 c #2A650D",
"0 c #226D0C",
"q c #2A6C0E",
"w c #217306",
"e c #227A07",
"r c #24740C",
"t c #29740D",
"y c #257B0C",
"u c #2A7B0D",
"i c #206610",
"p c #256C11",
"a c #296C13",
"s c #27681D",
"d c #257412",
"f c #2A7512",
"g c #267C12",
"h c #2B7C13",
"j c #267519",
"k c #2A761A",
"l c #2E7E1A",
"z c #327314",
"x c #317D15",
"c c #337D19",
"v c #2C7B22",
"b c #307223",
"n c #827C7C",
"m c #26820C",
"M c #2A830E",
"N c #2C890F",
"B c #30860F",
"V c #308C0E",
"C c #268212",
"Z c #2C8313",
"A c #2D8A14",
"S c #2F8419",
"D c #2F8819",
"F c #318315",
"G c #398616",
"H c #328B16",
"J c #33841A",
"K c #39831A",
"L c #348B1A",
"P c #3A8D1D",
"I c #359214",
"U c #34921B",
"Y c #39921C",
"T c #3C981E",
"R c #398520",
"E c #378A20",
"W c #3B8C22",
"Q c #3B8C2C",
"! c #379121",
"~ c #3C9321",
"^ c #3F9925",
"/ c #43831C",
"( c #438521",
") c #428C26",
"_ c #419425",
"` c #489226",
"' c #43952D",
"] c #489229",
"[ c #469B2B",
"{ c #B7B3B2",
"} c #DBD2CA",
"| c #EFE9E7",
/* pixels */
"rA4dL0*JH=FtpuuMZftFwM2mm,Jrt,ur700P10hrhh*WrL*Uy<",
"re:ZZ>gPHrerIPtHrfutrwmyAD0ch;wh;FJ$Sg1Ugf01JggyY&",
"uZwH4D1yFu4hHArI~f<t7Z2>21hiJhZ<hJutrS4m>,Z0pJ0Fx`",
"t>um#0fPMrYw4Mryaafwd>y:2gFfzx,!*7Gu0hZL,fhgtfrh:u",
"rZyrSdhu3wT*uH1e7rhZ>w>grhrFq(/tIr7$#1PuyJ6Lgdut;d",
"gZrZrFFyBqZlhrhutMZuyr>p<$$Jc/zftGxu1rfPZrhFJgrJ0l",
"yZy3erhMrhSPhtrZe@1mZy+rtdaYtp)9/zcqhPrfPd!r40dk1=",
"Lyh:rM7Y-......:mgXeMegdZi8rrqPxt0)hhZgrrAZrSfPxdh",
"ey>J+-ryC.}{nnn..:4:r7+yhSDw,SWhh0KWzT>rg10rkF_1kc",
"->yy34rP..{}{n{{n.uhg,1LrS6Wq1LtufqgtT<0kP:rLJfpPd",
"25-mNMt.}}nn{{{n....>hPP&JFrhh<ZZrh0hyJfh0>d1faRk!",
"-:3Z,w.}||||{{n.|.nn.Fu0J7FJ1cx=hrhxZ1Hhtrd<p~dpfh",
"Z>2ZZ.}|||||}{}||.{n.,FphgfSd=kZhurPZFygwm4<0JFSd,",
"4D,;.}|||||||}{}}.nnn.ZfprhfctruZLpgyLFArrmZr'aiFH",
"%:w.}}||.n|||}{n.nn{{{.................<eD4ZPk_0rg",
"0d.n|||||||||}{nnn{}}}{.{{{}}}}}}}}{{{{...ygEWK1rZ",
"u.}||||||||||{{n{{}}}|}}}}|}}}}}}}|||}}|||..hKf7Ze",
"u...n|||||||}{{{{}}}||}}|||||}}}||||||}}||}}..WZ:4",
"8.n.||||||}}{{{{{}}||}}||||||||}|||||||}|||}}{.<y1",
"u.n.}}.}}}}{{{{{}}|||||||||||||||||||||||||||}{.e4",
"M$.n..n}}}{.n{{}}|||||||||||||||||||||||||||}}{{.w",
"yJO.....nn.n{{{}|||||||||||||||||||||||||||||}}{.h",
"7euH7uYc..nn{{{}|||||||||||||||||||||||||||||}}}.e",
"Lu2uuPHWw.n{{{}|}|||||||||||||||||||||||||}||}{}.H",
":r-mermru.{{{}}}}}||||||||||||||||||||||||}}|}{{.t",
"A;Duretw.nn{{}}}}||}||||}||||||}||||}||||}}}}}{{n.",
"gghyree;.nn{}}}}}|}}||||}}||||}}|||}}}|||}}}}}{{n.",
"d~wm:yH:#.n{{}{}}}}}||}|}}|||}}}}||}}}}}|}}}}{.nn.",
"g<Mm3--5:.n{{{}}{}}}||}}}}}||}{}}|}{}}{}{}}}{{.n..",
"ry4:33m2Z.nn{{}{{{}}|}{}}}}|}{{}}}}{{{{}{}}{{nn.r0",
"kB42m-oCm.nnn{}{{{{}}}{}}}{}{{{{}}}{{{{}{}}{nnn.rr",
"0<5C2::+3r.nn{{{{{{}}}{{}{{}{{n{{}{{{{{{{{{nnnn.wL",
"hMf,ym-#y*r.n{{{n{{}}{{{{{{{{nn{{{{{nn{{{n{nnn.y,P",
":Pzr:ef:yyZ.nn{{nn{}{{n{{{{nnnnn{{{nnnn{nnnn..yrHf",
"hqF42e,gm<Z.nn{nnn{{{nn{{nnnnnnnnn{nnnnnnnn.H84mrh",
"yh+y>r$1Ar7#.nnnnnn{nnnn{nnnnn...nnn....nn.htwJ*^Y",
"rm#rrr0gyk,>.nn....nnn.nnnnn..hr:....n.... Ar)<r0w",
"uF0g4>erDo,Dr..nn n.n. ..nn.0p@y74-  n}}n IINBFTrD",
"rC>uglxH>44d, nnn n| { 11..,W14meox% n|}n uH#hxuHh",
"u2:rhh0tfhphF nn n}|}{ tue>Zp2Ad<h#l n|}{ HwZLYh1y",
"Z$Zr!*ZrJa0x< {n {}}{ <Jt>Lu1Zm@Ldc n}|}{ YrH0rZCD",
"0p14Dy>1PfHoJ .. .{{n uztZ;Pu@Yu71E {}}{ hZZMVrZ:N",
"F0dLuZrfWtdr# .. .... ;GhZZeeer7<fu .{{n Zry>Hu2+-",
"Pch1HJfa_x*7:    .... 7>HrYH>:M>hlH .... <umteD>Cd",
"1lFr>A4hGaGhdxWs     rCLwhZrF7yCHrM .... 0rhr<Zd!y",
"u7Zr3e>:PPJha'Kc0ZJ,g6gZuF7Ze>yeuer     cP<DrZ1r14",
"wLuu>2utxF7tdxphL4Z7rhhyFFzr7IAw1uw>Z>gcb^yL+Ay:g+",
">F7wyeymYJZyhdJEyyCyHFh7ta7MHHLZgCuuy#1jQ[F:2A4#mA",
"euyr>54eyUew_zfrrZD1Z1h]pJpFLlcJhruuw>wdvb~S123-;A",
">Dh5y2yP>22g^Srhy1Pr1lJt0fShiFf8krr7>7yddJRR12y+@2"
};
