/* XPM */
static char *result[] = {
/* columns rows colors chars-per-pixel */
"50 50 88 1 ",
"  c #222121",
". c #3A3737",
"X c #0D4D02",
"o c #154F07",
"O c #0D5B01",
"+ c #135603",
"@ c #135D04",
"# c #185D05",
"$ c #17570B",
"% c #165D0B",
"& c #1A5D0C",
"* c #156303",
"= c #1B6405",
"- c #176902",
"; c #1C6B05",
": c #176208",
"> c #1B640A",
", c #1D6B0A",
"< c #1D7306",
"1 c #1F7806",
"2 c #1E7209",
"3 c #1F7A0B",
"4 c #1D6311",
"5 c #216C07",
"6 c #21660B",
"7 c #2A650D",
"8 c #226D0C",
"9 c #2A6C0E",
"0 c #217306",
"q c #227A07",
"w c #24740C",
"e c #29740D",
"r c #257B0C",
"t c #297B0D",
"y c #206610",
"u c #256C11",
"i c #296C12",
"p c #257412",
"a c #2B7512",
"s c #267C12",
"d c #2B7C13",
"f c #267519",
"g c #2C751A",
"h c #2E7E19",
"j c #327314",
"k c #317D15",
"l c #337C19",
"z c #2C7B22",
"x c #827C7C",
"c c #278306",
"v c #26820C",
"b c #2A830E",
"n c #2C890F",
"m c #30860F",
"M c #308C0E",
"N c #268212",
"B c #2C8313",
"V c #2D8A14",
"C c #2F8419",
"Z c #2F8819",
"A c #318315",
"S c #398616",
"D c #328B16",
"F c #33841A",
"G c #39831A",
"H c #348B1A",
"J c #3A8C1D",
"K c #359214",
"L c #34921B",
"P c #39921D",
"I c #3C981E",
"U c #398520",
"Y c #378A20",
"T c #3B8D22",
"R c #3B8C2C",
"E c #379121",
"W c #3C9322",
"Q c #3F9926",
"! c #43831C",
"~ c #438521",
"^ c #428C26",
"/ c #419425",
"( c #489226",
") c #489229",
"_ c #469B2B",
"` c #B7B3B2",
"' c #DBD2CA",
"] c #EFE9E7",
/* pixels */
"wV2pH8#FD&AeurtcDaed0b<vv-F8e#ds=e6Yw,dwhs%YwF%Hr>",
"wq-VC-sYDwqwKJwAwaatw0vrVC8ld-0e=AD#Cd,Lde88BdBsP$",
"tB0V<C,tnd<dDVwKPa6t,B<;<,e6FdN,dSeewC2N;>B,uFuFk(",
"e;tt@waJAwK80B0diia8e,q*,NAkjl:E%8At,dBH*pddwded-t",
"tBt0CpabqwI%tD;r,wdB50-hed8A9~GaJr6=@;JesF8Hdpd8=f",
"sB0CwFArc9Ahkwdrebbrrw;p>=+Fl!jjeDme,epJNwaFCswF8h",
"rNv2rwtbqkFHdewBq+;vbrO2wp9Wei^7!jS9BHppJsEw<8ad=>",
"Htd-0t5P@r%8JJ,-vsowNrtpBu6wt8Jj98JahArteNdwCaJdas",
"1r>HO@wrv......rt*<=w8@rsCF0:hTBa8GJjP;ws;8wpFW,gk",
"*;sq13eLt.'`xxx..DtNt*,H0C4J88HetpeheI>udP=wHUa8Hg",
"<3*vVbep..`'`x``x.t*-sJJ$FFwsd:DBwh,tpHag8,w,giUdJ",
"*-qv*2H.''xx```x....lAt8F8AF8ll$d0kkB0Dap0p:uWauph",
"N;0BBA.']]]]``x.].xx.=AusspUu&dCdt8PADtNwv<>8HChp&",
"0F*=l.']]]]]'`']].`x.tBauwsale8tBH8stFANwwbNp_uyBD",
"$=2;.']]]]]]]'`''.xxx.dwt$dj8Ne0twP2:Hd>3C0hYj/0pr",
"wpa.'']].x]]]'`x.xx```.................2V<rrUTF60C",
"ki.x]]]]]]]]]'`xxx`'''`.```''''''''````...DBdFa5Bt",
"t.']]]]]]]]]]``x``''']'''']''''''']]]'']]]..hk^b=<",
"6...x]]]]]]]'````''']]'']]]]]''']]]]]]'']]''..T>r-",
"q.x.]]]]]]''`````'']]'']]]]]]]]']]]]]]]']]]''`.Dww",
"m.x.''.''''`````'']]]]]]]]]]]]]]]]]]]]]]]]]]]'`.;0",
"rF.x..x'''`.x``'']]]]]]]]]]]]]]]]]]]]]]]]]]]''``.b",
"5rq.....xx.x```']]]]]]]]]]]]]]]]]]]]]]]]]]]]]''`.r",
"Ht0ttKDJ..xx```']]]]]]]]]]]]]]]]]]]]]]]]]]]]]'''.D",
"-8*v0qvwt.x```']']]]]]]]]]]]]]]]]]]]]]]]]]']]'`'.w",
"V-DtqwqwJ.```''''']]]]]]]]]]]]]]]]]]]]]]]]'']'``.8",
"sdNr0rq#.xx``'''']]']]]]']]]]]]']]]]']]]]'''''``x.",
"pW8v-rD;.xx`''''']'']]]]'']]]]'']]]''']]]'''''``x.",
"s>vn1**3;.x``'`''''']]']'']]]'''']]''''']''''`.xx.",
"we2-11c<N.x```''`''']]''''']]'`'']'`''`'`'''``.x..",
"dB2<v*Xsv.xx``'```'']'`'''']'``''''````'`''``xx.ww",
"8>3N<--O<.xxx`'````'''`'''`'````'''````'`''`xxx.5D",
"smp=sv*Or#.xx``````'''``'``'``x``'`````````xxxx.:H",
";Hjw;qp,qsC.x```x``''````````xx`````xx```x`xxx.0Da",
"duB2;q*sv>d.xx``xx`'``x````xxxxx```xxxx`xxxx..8NpB",
"td+r-w%;Vw0.xx`xxx```xx``xxxxxxxxx`xxxxxxxx.eeA%WP",
"wb@www,Brg:;.xxxxxx`xxxx`xxxxx...xxx....xx.Vw^>w,w",
"rA,s2;ewVX:Z.xx....xxx.xxxxx..+r5...x x`.. KnmAIeD",
"wN;rsBkD,,2p:.. ]]'.x.F..xx.T,wNr+ xx x''x D@dktDr",
"r<;eakwepBudA= ']]`x uW9d..B2,V3:p `x x]'x 0CHPd,w",
"B@CwE#CwF98k>D x]]' tt6Fe;Dr8Nt+Ha .. x]'` xVw0BBH",
"wu62Vr;,JaDXFm ```` d5taed5Jt+Pr6, .. ']'` BbDwN-N",
"k8wZdBweTe8w@p xx`  b56StABrqqq5>d    `''` t,mt,O-",
"Jld8HApi(h:8- ...x ebN;;DwPD;-b;thMs@ .``x trrC<Nw",
",kDw;V2dGiSaa .... twwND0dbwB5qbDrmwb .... de;BpEs",
"b>Bw1q-,JJHti ... F:d>sCdB5Ar<rwrwpwc .... Zwd,w,<",
"wHtt;<tekA,ta    <b,wdttAlae5KV0,t;<B     rCOVr-NO",
"<k50rqrNPAdtBpFYtvNeHBd,ee8tDHFBsrttr@,fR_F-1V;@rV",
"0tdq;32wtLq2/jpweNZ,B,t)8FiBHalFdwetw;8pzgWF,<2*=K",
";VN2r<tL-<<tQAwdr,Je,hFe8gChyFd6dpw5-0rpfCUU;<3@O;"
};
