/* XPM */
static char *result[] = {
/* columns rows colors chars-per-pixel */
"50 50 163 2 ",
"   c #020101",
".  c #0A0504",
"X  c #0E0806",
"o  c #0C0608",
"O  c #0F0B08",
"+  c #130A06",
"@  c #190B06",
"#  c #140C09",
"$  c #190E0A",
"%  c #17100D",
"&  c #1B110D",
"*  c #171711",
"=  c #1D1411",
"-  c #250F05",
";  c #2B1207",
":  c #23140D",
">  c #2A160C",
",  c #2C190F",
"<  c #32190E",
"1  c #221611",
"2  c #2A1611",
"3  c #241913",
"4  c #2B1D15",
"5  c #331D14",
"6  c #381A12",
"7  c #351F19",
"8  c #3E1E19",
"9  c #2D2017",
"0  c #332116",
"q  c #3E2316",
"w  c #32211A",
"e  c #3C231A",
"r  c #3D2A20",
"t  c #432417",
"y  c #45251A",
"u  c #4A271C",
"i  c #4D2B1C",
"p  c #52291F",
"a  c #5A2F1C",
"s  c #442C23",
"d  c #542A22",
"f  c #5B2C24",
"g  c #463126",
"h  c #4A3327",
"j  c #4F3528",
"k  c #5B3624",
"l  c #58392A",
"z  c #553E30",
"x  c #5A3D35",
"c  c #612E27",
"v  c #632F28",
"b  c #663521",
"n  c #6A3925",
"m  c #67302A",
"M  c #6C362D",
"N  c #643D2A",
"B  c #0E4704",
"V  c #0B4B01",
"C  c #124306",
"Z  c #0D5B01",
"A  c #145505",
"S  c #135C04",
"D  c #185D04",
"F  c #17570A",
"G  c #1A540A",
"H  c #165C0B",
"J  c #1A5D0C",
"K  c #156403",
"L  c #1A6405",
"P  c #166902",
"I  c #1C6B05",
"U  c #176309",
"Y  c #1C640A",
"T  c #1D6C0A",
"R  c #1D7305",
"E  c #1F7806",
"W  c #1E720A",
"Q  c #1F7A0B",
"!  c #1D6311",
"~  c #216D06",
"^  c #21660C",
"/  c #2A650D",
"(  c #226D0C",
")  c #2A6C0E",
"_  c #217307",
"`  c #237B06",
"'  c #24740B",
"]  c #29740D",
"[  c #257B0C",
"{  c #2A7B0D",
"}  c #216412",
"|  c #246C12",
" . c #2A6C12",
".. c #257412",
"X. c #2A7512",
"o. c #267C11",
"O. c #2B7C12",
"+. c #267519",
"@. c #2D751B",
"#. c #2E7E19",
"$. c #327314",
"%. c #317D15",
"&. c #337C19",
"*. c #1B402E",
"=. c #2C7B22",
"-. c #307223",
";. c #644030",
":. c #6E4835",
">. c #60433D",
",. c #664839",
"<. c #714632",
"1. c #734C3E",
"2. c #78513D",
"3. c #704F47",
"4. c #7A5946",
"5. c #45694F",
"6. c #885445",
"7. c #8E5F52",
"8. c #95674F",
"9. c #876050",
"0. c #9C6C5C",
"q. c #A46653",
"w. c #AA7962",
"e. c #B17661",
"r. c #26820D",
"t. c #2A830E",
"y. c #27880C",
"u. c #2A880F",
"i. c #30860F",
"p. c #268211",
"a. c #2C8313",
"s. c #2D8A13",
"d. c #2F8419",
"f. c #2F8919",
"g. c #328315",
"h. c #328A15",
"j. c #33841A",
"k. c #39851B",
"l. c #348B1A",
"z. c #3A8C1D",
"x. c #2F9214",
"c. c #359213",
"v. c #35911C",
"b. c #3A921C",
"n. c #3C981E",
"m. c #398520",
"M. c #378A20",
"N. c #3C8C21",
"B. c #3B8C2C",
"V. c #379121",
"C. c #3C9321",
"Z. c #3F9925",
"A. c #43831C",
"S. c #438521",
"D. c #428D26",
"F. c #419524",
"G. c #489226",
"H. c #459824",
"J. c #489229",
"K. c #469B2B",
"L. c #48992A",
"P. c #B58165",
"I. c #C98372",
/* pixels */
"' s.W ' l.' A l.c.J g.) | { { y.a.X.] g._ y.I { y.K j.' ] K O...~ ] ^ z.T ( O.' O.O.H M.' l.H v.[ L ",
"' ` I s.d.L o.M.h.( ` ' c.z.) u.' X.O.] ' _ y.[ s.f.( &.O.L ' [ D g.h.H d.O.T v.O...' ~ d.O.O.o.b.F ",
"{ a._ s.T f.T [ i.O.R o.s.s._ v.z.X.L ] ~ a.R P W T X.^ k.o.a.Y { l.{ ] ' d.W p.I Y #.T ( j.( j.O.G.",
"] T { [ K ( O.k.u.' b.' ' s.' {  . .X.' ..I [ P T p.g.X.$.%.U b.D ^ k.{ T O.a.l.S o.O.O.X.X.' O.T [ ",
"[ a.[ ' d...X.t.E ' n.H { h.T ` T ' O.a.T ' I O.' X.' %.) S.k.] b._ ^ D S T M.' [ j.^ j.#...X.' Y ..",
"o.a.W a.' j.g.[ t.) O.&.O.' O.{ { t.u.[ ` W T ' Y L D j.&.S.$.$.] j.i.{ T ' X.b.a.' O.g.f.o.' j.( &.",
"{ p.o.E [ ' { t._ g.j.z.O.] _ a.` A I { s.` Z | ' ..) C.]  .D./ A.$.k.) g.l...] z...V.[ I ( ..%.L J ",
"l.[ { I _ { ~ b.K [ H ( z.z.~ I { r.B [ t.' o...a.| ^ ' [ ( z.$.' ) z.O.X.g.{ ....s.o.' f...z.%...O.",
"_ ' T j.Z K ' [ t.Q f.| g.b.K [ [ P _ L ' _ Z [ o.#.l.W L O.N.a.O.( k.N.$.b.I W o.T ~ ] X.j.F.T #.#.",
"K R o.` W ' ' l.{ K [ f.] %.j.D Y g.{ p.o.H T l.' d.! N.) T l...{ X.] O.{ b.Y ( O.M.I ' l.j.X.| l.@.",
"R Q K r.s.r.....k.[ ' T O.' ~ L M.g.[ K I ..z.z.F j.j.( O.O.Y g.a.' X.T o.O.g.X.#.( T ' T X. .j.O.b.",
"K P ` t.K _ v.s._ g.] O.D { z.{ Y A g.' g.g.O.~ k.~ a.l.| &.O.J O.( g.j.a.~ l.O.' ' ..Y ! Z.X.|  .O.",
"p.T E p.g.O.X...a.] ] ] X.j.Y { [ [ F g.z.L g.| #.[ X.j.| J O.&.O.{ ' z.a.l.' O.' [ W Y | l.d.d...H ",
"' f.K L j.] O.' T g.p.I ' a.R { p.' T X.k.{ a.O.( W #.X.g.' ' O.a.l.( o.[ l.g.s.' W r.s.' K. .! a.l.",
"A L _ T ' j.T L s.K ` o.' ( O._ s.L { { ~ { O.' { A X.@.( a.' _ { ' b.T U l.o.U ` f.W O.M.$.F.~ ..{ ",
"( ..X.k.X.T l.h.[ { O.D ' ' l.[ ' ..O.b.Y b.%.g.[ p.X.&.j.^ g.{ O.' ' l...( b.W f.P { o.M.M.m.Y ' s.",
"O. .) %.g._ s.' h.o.k.{ l.X.%.{ a.O.O.O.l.' k.a.O.a.O.g.Y O.O.o.O.b.{ J b.a.' O.O.T f.s.O.j..._ a.[ ",
"$.%.) O.L.] ' { g.` ' { %.z.X.p.' C.l.I ..N.g.' s.h.U S a.O...R o.T l.g.a.` ' O.k.s.R { #.&.D.O.I R ",
"~ { v.) F.%.' ' { [ ' g.) O.{ l.T [ ( [ [ F.%.O.K { s.~ O...a.d.#.' { z.g.~ M.] O.o.[ [ S j.N.^ [ I ",
"[ ) g.^ b.[ ' g.' { %.g.a.~ ~ { ' ` v.T ' %.h.' O.R l.p.( f.~ #.O.' O.X.l.~ ' O.( d.Y a.) ( j.g.' W ",
"t.D O.g.] [ { p.g.h.^ ( z.' _ ( j.h.[ I I { [ h.~ ~ ' T ' S a.j.G { X.g.j.' O.O.a.O...k.' &.z.t.P _ ",
"r.j.C { t.i.u.t.h.z.] { { g.t.' ] ' t.u.h.` L a.t.W I [ { W ' a.%._ g.]  ...' O.h.S b.l.O.O.j.u.j.i.",
"~ ' { h.~ ` b.j.) a.` u.[ X.' ' v.~ R h.I l.' [ u.P ' s.' p.( } z._ ' k.#.I N.#.' O.a.{ T #.j.z._ [ ",
"l.{ _ [ { z.h.k.' T y.` T [ L ' ~ _ r.P [ _ s.y.K r.h.z.{ T U C.[ s.....k.A  .H.k.] b.t.K N.Y ] j.h.",
"I W K t._ ` t.' { { y.` y.p.T p.L t.' ~ I U R f.K P T a.X.I _ j.K D.( b.{ X.o   %.  R ' a.k.] X.] ' ",
"s.L s.{ ` W [ ( z.[ { x.R L o.s.L O.b.b.K h.T I P R S W P K I W T l._ T o.$ v $     ~ a. .} N.O.~ ) ",
"o.o.p.[ ` [ ` L a.W R u.P W W I u.P ' p.N.r.[ P s.W Y T ' E R a.t.A [ S   f M o     Y O.O.O.| X.j.j.",
"..C.( t.P [ g.P S O.P [ r.y.` W         S r.E l.U Z s.I I [   # 2 @     $ M t #       I a.o.T j.] %.",
"o.T y.u.E P Z ` I ~ S r.` P       . X .     ` z.%.L S   X 8 2 % y 5 & X < f $ O . .     y.' I W V.O.",
"' ' W P E E y.R p.s.L _   . # & 4 3 3 3 % .         . + $ e d 0 q e > 1 0 s % 3 $ $ +   s.' O...' T ",
"O.%.W R r.K V o.r.' _ . % 0 y d f t 4 4 4 3 + X + : e q : 2 t 0 q t w 4 7 4 4 9 2 q 6 +   [ ~ h.' ' ",
"~ Y W p.R I P Z R     & q y q q t e 4 9 9 9 9 4 e q t q e 0 t 0 q t 0 0 e 4 4 3 : + *.$     I { ~ l.",
"O.t.X.D [ r.K Z [   X 4 q q t q y 0 0 9 9 9 9 9 0 q t q q q q q q q 9 0 e 0 9 9 9 5 5.* o .     J l.",
"T l.$.' I ` X.I   . $ 9 t q t q q q t q 0 0 0 q 0 t i a t t q 0 9 9 9 4 5 u 9 0 d i t % $ 2 .     O.",
"O.| f.W I ` K o.X . 3 0 q q q t t t q t t t t t t y f p q q q q 9 9 4 4 & y y q t e 4 5 t i 7 .   O.",
"[ O.A ` I '   . 1 % 1 0 t q t q q q 0 t t t q q q e q 5 : q t q 0 3 9 4 % : q q 4 % $ $ : 4 5 & C.b.",
"      '     # , 4 # # 4 q i u q y q 0 q 0 0 q t 0 4 1 $ & q q t q 1 9 9 1 % 3 9 , # X .     X ' ( ' ",
"[   # % : % 0 0 % . . 1 0 i c p u : % % & 9 q q i t 0 1 # , q t y 5 4 , = 2 = % . s.        g.b.' s.",
"`   . % 4 q 0 +   W   X 4 t c f 5 # # X . # 0 y u q 0 9 # @ t p m p 4 & : > : . c.c.{ h.S O.g.{ l.{ ",
"{ T       # . ' X.a.|   + q f u : # # .     O > 4 0 4 & . : t f m d , . # O X   n.b.h._ a.l.V.O.T ' ",
"a.D j.` V.H a.' j. .) X.X 3 0 q 4 & .           $ 2 & .   & y y v u # .       F.F h.z.' h.' ' a.p.l.",
"' | Y T s.[ I T k.X.h.  . 3 y e : X   .   ~ { $.          + q 0 8 : .       i.t.] t.t.s.y.i.' p.P u.",
"%.( ..f.X.a.' ..N.] 7 h : 0 f 1   X .   t._ ^ k.{ a.a.` ` . , ,     .   I D h.T i.a.[ [ ~ i.{ T Z K ",
"z.&.O.( l.h.O. .F.. q.e.5 > &   X     ] { p.I L l.' v.s.I   , t . . +   S ' [ k.{ Y { { [ { s.T p...",
"T O.g.' T p.' [ j.  h I.M . X w k @ %.{ ' ' p.s.W O.t.' s.. p 8.< . e + s...h.' j.T ..O.' T O...V.[ ",
"p.^ g.[ E ` T I z.k.. t b 2 . w ,.7 + L O.U #.a.o.g.~ g.{ I < <.a # r r % F { k.g.z.T l.' O.( ' T W ",
"' l.{ { I I t.] %.g.~   w ;.i $ o t k > 6 { O.O.g.&.X.] I c.  - n z @ g ;.+ #.&.-.C.{ p.S s.[ P r.Z ",
"R a.^ _ [ ` ` { b.h.a.[ a.y 3.N e + :.2.<.r O.~ ' X.~ { h.l.j.. n 0.7.x j l * +.B.K.j.P E p.R S { s.",
"_ [ { ' I W W Q ` v.` ' F.; 0.7.6.7 1 1.>.3.o J.| j.| a.l.@.&.j.u w.P.9.4 4.4 ..=.+.B.j.W R W K I h.",
"I h.t.W [ R [ b.I R W [ Z.. 3 1 = o   $ # $   ..( X.d.O.^ k.X.~ . 3 3 $   * . ..+.d.m.k.I W Q S Z I "
};
