/* XPM */
static char *result[] = {
/* columns rows colors chars-per-pixel */
"50 50 167 2 ",
"   c #020101",
".  c #0A0504",
"X  c #060805",
"o  c #0E0806",
"O  c #0E070A",
"+  c #0F0A09",
"@  c #100601",
"#  c #110906",
"$  c #1D0D07",
"%  c #140D0A",
"&  c #1A0E09",
"*  c #1C120D",
"=  c #1E1411",
"-  c #1A1812",
";  c #2B1207",
":  c #22130D",
">  c #29160D",
",  c #27180F",
"<  c #2C190F",
"1  c #32160B",
"2  c #3B1B0D",
"3  c #221611",
"4  c #291610",
"5  c #251A13",
"6  c #2B1D15",
"7  c #2B1D18",
"8  c #351D14",
"9  c #381C14",
"0  c #3C1E19",
"q  c #2D2017",
"w  c #2C2018",
"e  c #322117",
"r  c #3D2316",
"t  c #362319",
"y  c #3B231B",
"u  c #3E2A1F",
"i  c #3D2A22",
"p  c #402416",
"a  c #4C2312",
"s  c #462619",
"d  c #4A271C",
"f  c #4D281E",
"g  c #52291F",
"h  c #592C18",
"j  c #622F1B",
"k  c #472C21",
"l  c #512721",
"z  c #562B22",
"x  c #592B23",
"c  c #443025",
"v  c #4E362B",
"b  c #4F392E",
"n  c #533425",
"m  c #593222",
"M  c #58392A",
"N  c #5A3D35",
"B  c #622E27",
"V  c #693926",
"C  c #67312A",
"Z  c #613D2C",
"A  c #6E3C2C",
"S  c #703922",
"D  c #783D32",
"F  c #0B4B01",
"G  c #124306",
"H  c #0D5B01",
"J  c #135504",
"K  c #145C05",
"L  c #185D05",
"P  c #17570A",
"I  c #1A540A",
"U  c #165C0A",
"Y  c #1A5D0C",
"T  c #156403",
"R  c #1A6405",
"E  c #166902",
"W  c #1C6B05",
"Q  c #176309",
"!  c #1B640A",
"~  c #1D6C0A",
"^  c #1D7305",
"/  c #1F7A05",
"(  c #1E720A",
")  c #1F7A0B",
"_  c #1D6311",
"`  c #216D06",
"'  c #22660C",
"]  c #2A650D",
"[  c #226D0C",
"{  c #2A6C0E",
"}  c #217307",
"|  c #237B06",
" . c #24740B",
".. c #29740D",
"X. c #257B0C",
"o. c #2A7C0D",
"O. c #216610",
"+. c #246B12",
"@. c #2A6C12",
"#. c #257412",
"$. c #2A7512",
"%. c #267C11",
"&. c #2B7C12",
"*. c #267519",
"=. c #2D751B",
"-. c #2E7E1A",
";. c #327314",
":. c #317D15",
">. c #337C19",
",. c #23422A",
"<. c #2C7B22",
"1. c #307223",
"2. c #5F4132",
"3. c #604233",
"4. c #694534",
"5. c #664839",
"6. c #734532",
"7. c #734C3E",
"8. c #704F47",
"9. c #785745",
"0. c #456950",
"q. c #865344",
"w. c #8F5F47",
"e. c #876050",
"r. c #906052",
"t. c #9D6D5D",
"y. c #A96A59",
"u. c #AA7962",
"i. c #BB7867",
"p. c #BA7B68",
"a. c #26820D",
"s. c #2A830D",
"d. c #27880C",
"f. c #2B890F",
"g. c #30860F",
"h. c #268211",
"j. c #2C8313",
"k. c #2D8A13",
"l. c #2F8419",
"z. c #2F8919",
"x. c #328315",
"c. c #328A15",
"v. c #33841A",
"b. c #39841B",
"n. c #348B1A",
"m. c #3A8C1C",
"M. c #2F9214",
"N. c #359213",
"B. c #35911B",
"V. c #3A921C",
"C. c #3C981E",
"Z. c #398520",
"A. c #378A20",
"S. c #3C8C21",
"D. c #3B8C2C",
"F. c #379121",
"G. c #3C9321",
"H. c #3F9925",
"J. c #43831C",
"K. c #438521",
"L. c #428C26",
"P. c #419524",
"I. c #489226",
"U. c #489229",
"Y. c #469B2B",
"T. c #48992A",
"R. c #B58165",
/* pixels */
" .k.(  .v.[ K v.N.Y x.{ +.o.o.s.j.$...x.} f.W X.d.Q x.[ ..T %.$.' ..` n.[ [ j. .&.%.U A. .v.U B.o.Q ",
" .| W k.l.W %.A.c.[ |  .B.m...x. .$.&.....^ d.| k.z.[ v.&.R  .o.T x.x.Y l.h.~ B.&.$.[ [ x.%.h.%.V.I ",
"%.j.} k.^ l.~ %.j.o.} %.k.k. .N.V.$.W ..' j.^ E ^ ~ $.O.b.%.h.! o.v.$.X. .v.~ h.W ! l.~ +.v.+.v.:.I.",
"..` o.X.K  .$.m.x.X.N.[ } h. .a.@.@.$.[ X.~ X.T ~ h.x.$.;.:.Q G.P ` b.o.[ %.j.c.T $.&.&...&. .&.W X.",
"X.j.X. .l.$.$.s.^  .C.U ..c.~ | ~  .&.j.~  .W &.$... .:.{ K.b...m.| ' R K ~ n...%.l.[ v.j.#.&.[ R #.",
"%.j. .j. .x.x.X.s.{ x.-.x...%.o...s.d.o. . .W #.Q R L v.>.J.;.;...b.g...~ $.$.m.j.[ $.x.l.%. .v.[ -.",
"X.j.a.( X. .&.s. .g.v.n.o... .j.| K W o.d.| H [ X.#.{ G...@.L.] J.;.b.{ &.n.#...n.$.F. .( [ $.&.! Y ",
"n.X.%.E } o.` V.T X.Y [ m.m.W W a.%.G | j. .%.%.j.O.'  .%.[ m.;...[ V.$.&.x.%.X.X.l.h. .l.$.m.&.$.&.",
"}  .W v.H T  .X.a.| z.+.b.V.T X.X.E ^ R ..} H %.%.-.c. .L l.A.j... .b.S.$.C.W  .%.~  .+.=.v.P._ =.&.",
"T ^ o.X.(  . .B.o.K %.z...&.x.L ! x.o.j.X.U ~ c. .v._ S.[ [ c.$.o.$.@.&...C.Q +.&.m.E  .c.v.%.~ n.=.",
"( ) T a.h.f.X.#.m.X.( ~ j. .` R n.v.X.T ~ $.V.m.P v.x.[ &.%.! l.x. .&.W %.o.x.$.=.[ ~ X.~ $.@.Z.&.F.",
"T E | a.T  .c.l.} b...&.L o.m...! J x. .j.l...[ v.[ x.n.[ >.:.Y %.[ >.v.j.[ c.&.$.}  .Y +.H.$.[ $.j.",
"h.W } j.j.x.$.%.j.{ ....$.x.! o.X.X.U b.m.R x.+.&.#.%.v.+.Y &.l.&.o.[ V.l.c.X.j. .a. .! +.v.v.>.#.Y ",
" .l.T R v.$.&. .W f.h.~  .l.} o.%.X.` [ m.o.j...+.X.&.$.>...[ o.j.c.+.%.X.v.x.j.} ( a.h.X.Y.+.O.j.v.",
"U R  .W [ j.~ R j.E  .o. .( %.} x.R o.%.[ o.&. .o.J $.=.+.&. .} %. .V. .Q n.%.! | k. .&.A.=.P.[ $.o.",
"[  .$.v.$.~ m.c.o.o.%.L  . .n.X.X.#.%.V.! V.&.x.X.j.$.>.v.! x.g.&. . .v. .[ B.( z.W X.%.A.A.b.R ( k.",
":.@.@.:.b.} k. .c.%.c...n.$.:.X.j.$.%.$.v.X.x.j.o.j.%.v.! &.%.%.%.V.&.Y N.    &.%.~ c.k.&.b.$. .j.X.",
"o.:.{ ..T. . .$.g.X.X.$.:.m.$.j.X.G.n.` $.S.v. .k.c.T K j.&. . .%.~   x.        v.v.^ o.x.=.S.&.R ^ ",
"' ..m.{ C.:.X. ...o.X.:.{ %.o.c.~ X. .X.o.P.:.s.T o.k.~ %.$.&.l.-.. = * %             X.U v.G.! X.W ",
"o. .x.[ m.X. .x. .j.:.x.x.` ` o.%.o.c.W [ x.v. .%.} n.j.[ l. .>.&.  x C 7 * # o o o     [ [ b.x. .( ",
"s.L &.x...| o.a.j.x.[ [ m. .} [ j.c.X.W ` o.X.v.[ ` X.~  .K h.v.I o.& D z * 5 * : 4 &             } ",
"a.x.G &.s.g.f.j.c.m...&...x.s.X.....a.f.c.| E j.a.( W o.o.)  .:.b.}   3 A * 5 3 9 > ,.X . & . #   s.",
"}  .o.c.` ..G.:...x.| f.X.$. . .n.W ^ x.W z. .X.d.E  .h. .%. ._ m.}   , u 5 6 3 * > 0.- % 3 8 ,   X.",
"c.%.} X.s.c.c.m.[ W f.^ ~ X.R  .} } a.W X.} c.d.T a.c.m.o.` Q       * r 7 7 6 w 7 y s 8 8 r y o   n.",
"W [ T a.} | a. .o.o.d.a.a.s.( j.E s. .W W T ^ z.T T W x.%.. . * s , 3 q 6 q 6 q u x e $ * & .   .. .",
"k.W k.o.|  .o.[ m.X.o.M.^ T %.h.T &.V.V.R c.~ W W ( K ( # l 0 : r p , 3 e r r p p r : * o     j.{ [ ",
"%.%.%.X.| | | T j.( ^ k.E ( ( W c.T X.j.S.a.%.E k.~     o 6 f y p p , 6 e q e 8 9 3 *     o .   x.v.",
"#.G.[ s.E X.v.E K &.T | a.d.| ( f./ h.%.U | | c.E o 3 4 * 4 p q p p > 3 r e 3 3 5 5 .   l.    v...:.",
"%.Q f.d./ E T ) W [ T a.| T ) j.        k.E /   . 8 s p 8 e p r r p e q p 8 5 * % +   T d.} ~ [ A.%.",
" .X.( E ^ } a.^ j.j.T } W         # # .       . * p r p p r r t s e q w w w e * 3 .   d.k. .%.#.X.[ ",
"&.:.( ^ a.T F %.a. .} h.  o * > e q q q * + * 6 e r x f p p p e w 6 w 6 6 q 9 4 *   ( j.o.X.[ c. . .",
"[ ! ( h.^ W E H ^ X.&.. 3 y s z z p 6 q w w w e p s x x s p p p q w w q 3 : & 6 #   o.%.K E W o.` n.",
"%.f.$.L X.a.T H X.U   * r p p r r e q q 6 w e r p e > t t r p p 2 > e 3 6 : 3 6   ..m.:.x.o.E X.! n.",
"W m.;. .W | $.W a.  o 6 p p p p p r e e w w r p p r > * * p p r t * : * : > * ,   ..[ m.! c.| ) c.$.",
"%.+.x.( W | T %.    % e p p p p p p p p r r p p p p r * # , p p p r : = : < 3 #    .$.x.x.! } h.X.&.",
"o.%.J | W  .K ~ . . 3 e p p p p p p r p r r p p p r q q @ $ s s h s 3 * * * : .  .X.j.g.$. .x.Y P.F.",
" .s.K  . . .[   # # * e p r p p p s q p r r r p p t w w # * p x C x 6 o # .     c.g.X.k. .L.!  .[ [ ",
"X.b.[ h.( ~ X.  % * & e r f f p r p q e t t t p r q 6 = o & s x C l : . .     m.Y f.c.N.f.g.x.C. .c.",
"} j.E X.%.-.  . % # . 3 e x C x f q q # * , : 4 * o . .   : r d C l o       a.J C.N.o.c.U $.:.o.c.%.",
"o.^ E ..$.&.  4 :     * e s B C d * o   . = 4             * p p z >       U a.} C.V.c./ l.c.V.j.~ X.",
"h.L l. .V.  # e - {     4 s x z 3 o % # .   . v...W x.o.~ & r r 3 .       -.} P.P g.V.} c. .X.&.h.c.",
"      W     , 4 . $.x.  # 8 l s 4 * #       o.;...j.W m.o.o : <     .    .$.g.a.| o.j.j.s.g. .j.E f.",
"v.  . * * * 4 X S...#.  # 3 q d , & . .   ` R m.o.j.j.o.|   $ 9 .   o   W L c.` c.s. .o.` g.o.^ H T ",
"m.  . o * 6 3 @.T.&.s 3.: 8 k * @ . .   a.j.W R c. .B.k.W   > Z r . i 3 K  .o.n...' o.a.X.X.k.~ %.#.",
"` :.x.    .  .$.x.X y.p.y $ #   .     &. .( j.k.} &.s. .j.` 8 S h o v m # %.x.[ l.[  .&. .! h.$.F.) ",
"%.' j. ./ ) E W m.  t i.4.@ O 4 2 .   Q &._ %.l.%.x.` x.o.^   ; A v # 5.b P o.m.>.m.~ z.#.&.~ X.~ ( ",
" .n.o.o.W ^ o. .:.x.. 1 j 2   7 n 9 # ; : %.o.o.x.>.;. .W N.k.. 5.9.e k 2.# &.>.1.H.X.l.H k. .E a.H ",
"^ :.` } o.| | j.V.x.j.  $ a i c Z s g 6.6.i &.~ ....[ o.c.c.x.. V y.w.N v M - *.D.Y.x.W ) k.W K o.k.",
" .X.%. .W ( ( | | B.|  .  ; t.r.q.7 > 7.2.8.X U.[ v.+.v.n.=.>.b.k u.R.e.5 9.5 #.<.1.G.l.( ^ ( E ! k.",
"W k.a. .X.^ X.V.W ( ( %.H.. 3 3 3 O   & O =   X.+.$.l.&.' v.%.' . - 3 - X = X #.#.v.Z.Z.W ^ X.H K W "
};
