/* XPM */
static char *result[] = {
/* columns rows colors chars-per-pixel */
"50 50 155 2 ",
"   c #030101",
".  c #0A0604",
"X  c #0E0806",
"o  c #0E0B08",
"O  c #110601",
"+  c #110906",
"@  c #180B06",
"#  c #130B09",
"$  c #1A0E0A",
"%  c #1C120D",
"&  c #1E1411",
"*  c #2A1207",
"=  c #23140E",
"-  c #2B160C",
";  c #2C180F",
":  c #3F1C0D",
">  c #221610",
",  c #2A1710",
"<  c #251A13",
"1  c #2B1D15",
"2  c #331D14",
"3  c #381B11",
"4  c #1F2A18",
"5  c #2E2017",
"6  c #26241A",
"7  c #322117",
"8  c #3C2316",
"9  c #36211B",
"0  c #3D241B",
"q  c #3D2A20",
"w  c #402416",
"e  c #432519",
"r  c #49261B",
"t  c #4C291D",
"y  c #522614",
"u  c #51291D",
"i  c #5B2D19",
"p  c #65311A",
"a  c #452E24",
"s  c #4A2820",
"d  c #562B23",
"f  c #5B2C24",
"g  c #473226",
"h  c #4F3528",
"j  c #4F392E",
"k  c #58392A",
"l  c #553E30",
"z  c #5A3D35",
"x  c #612E27",
"c  c #652F29",
"v  c #6A3925",
"b  c #68322B",
"n  c #633F2F",
"m  c #0E4704",
"M  c #0B4B01",
"N  c #124306",
"B  c #0D5B01",
"V  c #135504",
"C  c #145C04",
"Z  c #185D05",
"A  c #17570A",
"S  c #1A540A",
"D  c #165C0A",
"F  c #1A5D0C",
"G  c #156403",
"H  c #1A6405",
"J  c #166902",
"K  c #1C6B05",
"L  c #176309",
"P  c #1B640A",
"I  c #1D6C0A",
"U  c #1D7305",
"Y  c #1F7A05",
"T  c #1E720A",
"R  c #1F7A0B",
"E  c #1D6311",
"W  c #216D06",
"Q  c #21660C",
"!  c #2A650D",
"~  c #226D0C",
"^  c #2A6C0E",
"/  c #217307",
"(  c #237B06",
")  c #24740B",
"_  c #29740D",
"`  c #257B0C",
"'  c #2A7C0D",
"]  c #216610",
"[  c #246C11",
"{  c #2A6C12",
"}  c #257412",
"|  c #2A7512",
" . c #267C11",
".. c #2B7C12",
"X. c #267519",
"o. c #2D751B",
"O. c #2E7E1A",
"+. c #327314",
"@. c #327D15",
"#. c #337C19",
"$. c #2C7B22",
"%. c #307223",
"&. c #5F4233",
"*. c #64443C",
"=. c #714530",
"-. c #704835",
";. c #78513D",
":. c #3A7256",
">. c #704F47",
",. c #7A5946",
"<. c #864438",
"1. c #885445",
"2. c #875C46",
"3. c #8E5F52",
"4. c #906047",
"5. c #9C6C5C",
"6. c #A76958",
"7. c #AA7962",
"8. c #C07B6A",
"9. c #26820D",
"0. c #2A830D",
"q. c #27880C",
"w. c #2B890F",
"e. c #30860F",
"r. c #268211",
"t. c #2C8313",
"y. c #2D8A13",
"u. c #2F8419",
"i. c #2F8919",
"p. c #328315",
"a. c #328B15",
"s. c #33841A",
"d. c #39851B",
"f. c #348B1A",
"g. c #3A8C1C",
"h. c #359213",
"j. c #35911B",
"k. c #3A921C",
"l. c #3C981E",
"z. c #398520",
"x. c #378A20",
"c. c #3C8C21",
"v. c #3B8C2C",
"b. c #379121",
"n. c #3C9321",
"m. c #3F9925",
"M. c #43831C",
"N. c #438521",
"B. c #428C26",
"V. c #419524",
"C. c #489229",
"Z. c #469B2B",
"A. c #48992A",
"S. c #B58165",
"D. c #DA917D",
/* pixels */
") y.T ) f.) V s.a.F t.^ [ ' ' 0.t.| _ p./ q.K 9.q.Z p.) ) L ' ) Q / ~ f.~ ~ ..) .. .D c.) g.D j.` P ",
") ( K y.u.H  .x.a.^ ( ) h.g.) p.) ...._ _ U q.` y.u.~ #...P )  .Z p.a.F u...I j...| ~ I u...r.` k.A ",
" .t./ y.U u.I ' w...U  .a.y.) h.g.| P ) ~ t.U K U I | ] d. .t.P  .d.' ) ) u.T r.K F u.I ] s.~ s.@.C.",
"_ W ' ` C ~ ..g.w.) k.) T w.) ' { | _ ~ ) K ` G U  .s...+.@.P k.Z W d.' I ..t.f.G  ....._ ..) ..K ) ",
"` t.` ) u.} ..' / ) l.D ' a.I ` W ) ..t.W ) K ..) ' / @.^ N.d._ h._ ~ Z C K g.' ` s.~ s...|  .~ J | ",
" .t.) t.) s.p.` w.^ t.#.p.~ ..( | 0.0.` ` ) K } P P V s.#.M.+.+._ a.@.' I ) | g.t.) ..s.i.} ) d.[ O.",
"` r.r.U ) ) ' 0.` ' t.g...^ ) t.( V K 0.9.' B ~ } } ^ n._ { B.! M.+.#.^ ..x.} | f. .n.) U ) { O.P F ",
"f.' ..J / 0.W k.C ` P ~ g.g.W K 9. .m ` r.(  .} u.~ Q )  .~ g.+.^ ^ k.....p.' ) } t. .) u.} g...} ..",
"/ ) K s.B G ) ` t.( u.} p.k.G ` ` G U H ) W B ` } t.t.) L O.c.t.' ~ d.c.+.k.K )  .I W ) | s.n.I O.O.",
"G U  .` ) ( ) f.` G ` u._ ..d.G P p.9.t. .L I f.) s.E c.^ W f.) ' | ^ ..' l.P ~ | n.H ) i.d.o.~ d.| ",
"U R G 9.r.r.) } d.' T I ..) W H g.t.' L H ..g.g.A s.s.) ..| P t.t.} ..I ..` d.X.O.~ I ) I | { z...b.",
"J J ( 9.G ) j.y.U d._ ..Z ' g.' P V t.) p.p...W d.W s.i.T #.#.F  .~ p.#...T y...} / } P ] m.} [ } ..",
"..K T t.t...| | t._ _ ) | s.P ' ) ` A s.g.H p.[ |  .| s.[ P | u...' ) g.t.a._ t.) 9.U P ~ s.u.u.| D ",
"T u.J H #.....) I t.t.K ) t./ ..t.` H } g._ t.| } ) ..} #.| ) ' t.f.~  . .f.t.r.) T t.r.) Z.{ E t.f.",
"D H / K ) u.I H t.G (  .) ) ..W a.P ' 0.) ' ..) ' V | o.[ t.) /  .) n.U L g. .P Y u.) ..g.o.v.~ } ' ",
"~ } | d.| I g.y.` 0...Z ) ) f.( ( }  .k.P k.' p.` t.| #.s.Q p.' ..) T d.) ~ k.T i.U ` ` g.c.d.K ) t.",
"..^ { @.s.W t.) s. .s.' f.....( ..| ....f.) s.t.' t. .d.P .. .' ' g...Z k.p.) O. .I f.r...d.X.) t.' ",
"_ #.^ ' A.) ` ..e.` ( ' @.N.| t.) V.f.K } c.p._ y.a.L C t. .` I  .I g.t.w.` ` | d.t./ 0...O.M.t.K K ",
"~ ..g.^ V.p.` ) ' ' ` @.^  . .g.I ` ) `  .V.#...G ` r.T ..} O.u.O.)  .f...W x.) ` r.` ` F s.n.P ` K ",
"( _ p.W g.` ) t.) ..@.p.p.K W _ ` ` f.K W p.s.( t./ g.0.~ f.~ ....) @.| g.W )     s.P t.Q ~ d.p./ T ",
"0.Z ..t.) ' ' ' t.d.W ~ g./ / ~ p.a.9.K K ' ' y.~ K ` I ( C t.s.S ' ' p.#.$       | } d.} #.g.t.K / ",
"' d.N ..e.e.w.0.a.g./ ' _ p.t.( | ) 0.0.a.( K t.0.T K ` ' ) T ..p./ @._ d s       Z j.f. ...p.0.s.0.",
"W ( ` f.W _ k.#.} t.( a.` ..} ) a.W U p.K i.) ` q.K ) t.) r.[ ] g./ ) $ <.>         y...H ..s.g./ ' ",
"f.` / ' ' h.a.g.~ K w.U I ` H ) / / q.H ` / y.r.G 9.a.g.' W L n.` a.} # b , # o . . .   P n.Q ' p.a.",
"K I G 0.U ( 9.) ' ' t.( 9.0.U r.H 9.` H K L U u.B J K p...H / f.L V.    : s $ & $ $ ; #   d._ |  .) ",
"y.P y.' ` ) ( ~ g.( 0.h.U G  .t.H ..V.g.G a.I U K T C T G G   . # X + @ < s & 1 1 8 < 4         ^ ~ ",
"'  .t.` T ( ( H r.` U q.J Y T K w.J ` t.g.9.` J y.T L T   = # % t : % 8 3 1 1 < % = 6 :.. . $       ",
"} n.W 9.J ` s.K B ..H ` 9.r.( T q.9.r. .C 9.Y f.J   t.  @ s r 1 8 w 7 7 q 1 1 6 1 2 r 0 % $ 8 $     ",
" .P r.q.Y J G Y H ) G 0.R J `  .        r.K (     . % ; $ 1 r 9 8 w 8 5 5 8 5 5 8 d e 1 2 8 8 ;     ",
") } ( J U Y 9.U y.r.L U K         X X .       . ; 3 8 w 2 2 8 7 8 w w 7 5 5 7 8 0 e , $ = $ # .   W ",
" .p.U U 9.G M  .9.) ) r.  X % ; 5 5 1 1 & o % 1 7 8 w w w 7 e 8 w 8 8 2 8 7 5 9 9 < & # o . . . ) ) ",
"W P ) r.U K J B T ) ' . > 8 e d f e 1 1 1 7 1 7 7 7 w r w w 8 7 7 5 5 7 8 1 , > < 1 .         ` W f.",
"..w.) Z ' 9.G B 9.Z   % 8 w w w 8 8 5 5 1 6 7 7 8 w t f r 8 w 8 1 1 7 6 7 7 % % $ o   p.p.t.K ` L f.",
"P g.+.) K (  .H `   X 5 8 w w w w 8 7 5 1 1 8 w e w r r ; w w w 8 1 1 1 5 8 > > #   ~ g.Z a.` U a...",
"..{ s.U J ( L  .9.  $ 5 w w w w w w 8 8 8 8 w w 8 5 1 % % w w w 3 < 1 & < ; = =   ) ..a.a.H / t.} ..",
"'  .B ` K ) Z I   . > 7 w w 8 w w w 8 8 8 w w w u r 8 2 % 3 w w 8 2 % & % ; $ .   ` ..' | ) p.D n.l.",
") ' Z ) ) ) I   X + & 5 8 t t 8 0 8 7 8 8 8 8 w e u 8 7 # % w t t r ; & % = .   a.t.' y.) B.P ) ~ ~ ",
"' p.T  .U K ` % < # . = 7 f c u e 8 1 % & < 8 w 7 8 7 > X % w f b d < X .     g.F y.h.h.w.p.p.k.) a.",
")   U ` X.    7 =     % 7 t x b u > o   . > 1 = % $ X .   = 8 t c r X       9.A h.h.` a.C | p.' f.` ",
"`         # 1 3 X t.  + ; w x f , o # #   . .       K t.I % w w f ;       V 9./ l.k.a.) t.a.l...I ) ",
"t.  . & > 2 7 .   ^ ~   + 3 d 8 - $ #         d._ K a.` T # 8 3 ,     .   O.( V.S a.g./ y.) ) t. .j.",
") [     X % ; . d.| p.  . < 5 8 1 % .       .._ _ ..W g.0.. ; -     .   / | p.0.( ' t.y.w.p.) 0.J t.",
"#.W } i.    ) } c._ }   . < s 0 % . X     K H d.' t.0._ ( . ; w   . .   K V w.W a.' ` ' ~ a.' K B J ",
"g.O.t.I f.d.| { V.O.t *.= 8 d %   . .   ' t.K W g.( k.y.K . g 2.; . 3 + A ( ' d.' Q ' ' ` ` t.U r.T ",
"I ..s.( K y.T ' d.  6.D.*.$ +   .     ' ) ` 9.f.I t.' ( y.K w <.y   l 1    .a.) s.I ) ..) I ..} b. .",
"t.P p.( U ( I K c.  2 8.n     $ 5 . a.L | E  .t. .p.~ p.' K ; p i $ a k % A ' d.#.g.I i.) ..I ) I T ",
") g.| ' K U ' _ ..p.. * y 8 1 0 j & 1 , : ...._ @.p.| _ K h.  * v l $ g &.$ | O.%.m.` u.B y.` K 9.B ",
"K t.Q / ` ( ` 0.k.s.0.` O t >.*.9 X -.;.=.q t.H  .^ ~ ' a.a.d.  b 5.4.z h k & X.v.Z.s.J Y y.K C ' y.",
"( `  .( K T U ( ` f.` T V.* 5.3.1.2 = >.z >.. C.~ d.} u.f.o.#.p.a 7.S.2.< ,.& } $.o.m.u.I U T H P y.",
"K y.0.) } U ` k.K U U  .m.. < > & X   $ # &   _ E | u...Q s.| ~ . = < % o % o } } u.z.z.K U R C B U "
};
